%
M48
M72
T01C0.02756
T02C0.03200
T03C0.03937
T04C0.04000
T05C0.04400
T06C0.04724
T07C0.05512
T08C0.07480
T09C0.12598
%
T01
X167000Y194310
X173000Y188310
X248000Y182310
X251000Y194310
X301000Y163310
X321000Y199310
X118000Y53310
T02
X26000Y207310
X26000Y197310
X26000Y188310
X26000Y148310
X75000Y138310
X75000Y128310
X75000Y111310
X75000Y101310
X70000Y87310
X20000Y73310
X20000Y63310
X50000Y42310
X60000Y42310
X70000Y47310
X86000Y53310
X126000Y53310
X155000Y53310
X195000Y53310
X208000Y47310
X273000Y77310
X283000Y77310
X208000Y87310
X208000Y101310
X208000Y111310
X208000Y128310
X208000Y138310
X272000Y126310
X290000Y126310
X308000Y126310
X324000Y126310
X324000Y166310
X337000Y172310
X347000Y172310
X308000Y166310
X290000Y166310
X272000Y166310
T03
X25000Y137003
X25000Y123223
T04
X53000Y181310
X53000Y171310
X53000Y161310
X53000Y151310
X53000Y141310
X53000Y131310
X80000Y206310
X90000Y206310
X100000Y206310
X110000Y206310
X120000Y206310
X130000Y206310
X140000Y206310
X150000Y206310
X160000Y206310
X170000Y206310
X186000Y206310
X196000Y206310
X206000Y206310
X216000Y206310
X226000Y206310
X236000Y206310
X246000Y206310
X256000Y206310
X276000Y206310
X286000Y206310
X296000Y206310
X306000Y206310
X316000Y206310
X326000Y206310
X336000Y206310
X346000Y206310
X376000Y206310
X386000Y206310
X386000Y196310
X376000Y196310
X376000Y186310
X386000Y186310
X386000Y176310
X376000Y176310
X376000Y166310
X386000Y166310
X386000Y156310
X376000Y156310
X376000Y146310
X386000Y146310
X386000Y136310
X376000Y136310
X376000Y126310
X386000Y126310
X386000Y116310
X376000Y116310
X376000Y106310
X386000Y106310
X386000Y96310
X376000Y96310
X376000Y86310
X386000Y86310
X386000Y76310
X376000Y76310
X376000Y66310
X386000Y66310
X386000Y56310
X376000Y56310
X376000Y46310
X386000Y46310
X386000Y36310
X376000Y36310
X346000Y39310
X336000Y39310
X326000Y39310
X316000Y39310
X306000Y39310
X296000Y39310
X286000Y39310
X276000Y39310
X266000Y39310
X256000Y39310
X246000Y39310
X236000Y39310
X226000Y39310
X226000Y16310
X236000Y16310
X246000Y16310
X256000Y16310
X266000Y16310
X276000Y16310
X296000Y16310
X306000Y16310
X316000Y16310
X326000Y16310
X336000Y16310
X346000Y16310
X356000Y16310
X366000Y16310
X316000Y99310
X306000Y99310
X296000Y99310
X286000Y99310
X276000Y99310
X266000Y99310
X256000Y99310
X286000Y115310
X296000Y115310
X306000Y115310
X316000Y115310
X236000Y131310
X236000Y141310
X236000Y151310
X236000Y161310
X236000Y171310
X236000Y181310
X276000Y185310
X286000Y185310
X296000Y185310
X306000Y185310
X316000Y185310
X326000Y185310
X103800Y41210
X78200Y41210
X78200Y23410
X22000Y26310
X22000Y36310
X22000Y46310
X103800Y23410
X116000Y16310
X126000Y16310
X136000Y16310
X146000Y16310
X156000Y16310
X166000Y16310
X176000Y16310
X186000Y16310
X206000Y16310
X216000Y16310
T05
X88000Y180310
X88000Y163310
X128000Y163310
X152000Y163310
X152000Y180310
X128000Y180310
X192000Y180310
X192000Y163310
X195000Y86310
X195000Y71310
X155000Y71310
X155000Y86310
X127000Y86310
X127000Y71310
X87000Y71310
X87000Y86310
T06
X104000Y138310
X114000Y138310
X124000Y138310
X134000Y138310
X144000Y138310
X154000Y138310
X164000Y138310
X174000Y138310
X169000Y118310
X159000Y118310
X149000Y118310
X139000Y118310
X129000Y118310
X119000Y118310
X109000Y118310
T07
X106000Y152310
X196000Y142310
X196000Y126310
T08
X54780Y97302
X36276Y97302
X17772Y97302
T09
X66000Y206310
X361000Y206310
X386000Y16310
X61000Y16310
M30
