%
M48
M72
T01C0.02756
T02C0.03200
T03C0.03937
T04C0.04000
T05C0.04400
T06C0.04724
T07C0.05512
T08C0.07480
T09C0.12598
%
T01
X166000Y194310
X172000Y188310
X247000Y182310
X250000Y194310
X300000Y163310
X320000Y199310
X117000Y53310
X212600Y36310
T02
X25000Y207310
X25000Y197310
X25000Y188310
X25000Y148310
X74000Y138310
X74000Y128310
X74000Y111310
X74000Y101310
X69000Y87310
X19000Y73310
X19000Y63310
X49000Y42310
X59000Y42310
X69000Y47310
X85000Y53310
X125000Y53310
X154000Y53310
X194000Y53310
X207000Y47310
X236000Y60310
X236000Y70310
X261000Y70310
X261000Y60310
X286000Y60310
X286000Y70310
X311000Y70310
X311000Y60310
X336000Y60310
X336000Y70310
X236000Y93310
X226000Y93310
X207000Y87310
X207000Y101310
X207000Y111310
X207000Y128310
X207000Y138310
X271000Y126310
X289000Y126310
X307000Y126310
X323000Y126310
X323000Y166310
X336000Y172310
X346000Y172310
X307000Y166310
X289000Y166310
X271000Y166310
T03
X24000Y137003
X24000Y123223
T04
X79000Y206310
X89000Y206310
X99000Y206310
X109000Y206310
X119000Y206310
X129000Y206310
X139000Y206310
X149000Y206310
X159000Y206310
X169000Y206310
X185000Y206310
X195000Y206310
X205000Y206310
X215000Y206310
X225000Y206310
X235000Y206310
X245000Y206310
X255000Y206310
X275000Y206310
X285000Y206310
X295000Y206310
X305000Y206310
X315000Y206310
X325000Y206310
X335000Y206310
X345000Y206310
X375000Y206310
X385000Y206310
X385000Y196310
X375000Y196310
X375000Y186310
X385000Y186310
X385000Y176310
X375000Y176310
X375000Y166310
X385000Y166310
X385000Y156310
X375000Y156310
X375000Y146310
X385000Y146310
X385000Y136310
X375000Y136310
X375000Y126310
X385000Y126310
X385000Y116310
X375000Y116310
X375000Y106310
X385000Y106310
X385000Y96310
X375000Y96310
X375000Y86310
X385000Y86310
X385000Y76310
X375000Y76310
X375000Y66310
X385000Y66310
X385000Y56310
X375000Y56310
X375000Y46310
X385000Y46310
X385000Y36310
X375000Y36310
X345000Y39310
X335000Y39310
X325000Y39310
X315000Y39310
X305000Y39310
X295000Y39310
X285000Y39310
X275000Y39310
X265000Y39310
X255000Y39310
X245000Y39310
X235000Y39310
X225000Y39310
X225000Y16310
X235000Y16310
X245000Y16310
X255000Y16310
X265000Y16310
X275000Y16310
X295000Y16310
X305000Y16310
X315000Y16310
X325000Y16310
X335000Y16310
X345000Y16310
X355000Y16310
X365000Y16310
X315000Y99310
X305000Y99310
X295000Y99310
X285000Y99310
X275000Y99310
X265000Y99310
X255000Y99310
X285000Y115310
X295000Y115310
X305000Y115310
X315000Y115310
X235000Y131310
X235000Y141310
X235000Y151310
X235000Y161310
X235000Y171310
X235000Y181310
X275000Y185310
X285000Y185310
X295000Y185310
X305000Y185310
X315000Y185310
X325000Y185310
X102800Y41210
X77200Y41210
X77200Y23410
X21000Y26310
X21000Y36310
X21000Y46310
X102800Y23410
X115000Y16310
X125000Y16310
X135000Y16310
X145000Y16310
X155000Y16310
X165000Y16310
X175000Y16310
X185000Y16310
X205000Y16310
X215000Y16310
X52000Y131310
X52000Y141310
X52000Y151310
X52000Y161310
X52000Y171310
X52000Y181310
T05
X87000Y180310
X87000Y163310
X127000Y163310
X151000Y163310
X151000Y180310
X127000Y180310
X191000Y180310
X191000Y163310
X194000Y86310
X194000Y71310
X154000Y71310
X126000Y71310
X126000Y86310
X154000Y86310
X86000Y86310
X86000Y71310
T06
X103000Y138310
X113000Y138310
X123000Y138310
X133000Y138310
X143000Y138310
X153000Y138310
X163000Y138310
X173000Y138310
X168000Y118310
X158000Y118310
X148000Y118310
X138000Y118310
X128000Y118310
X118000Y118310
X108000Y118310
T07
X105000Y152310
X195000Y142310
X195000Y126310
T08
X53780Y97302
X35276Y97302
X16772Y97302
T09
X65000Y206310
X360000Y206310
X385000Y16310
X60000Y16310
M30
