G75*
%MOIN*%
%OFA0B0*%
%FSLAX25Y25*%
%IPPOS*%
%LPD*%
%AMOC8*
5,1,8,0,0,1.08239X$1,22.5*
%
%ADD10C,0.08600*%
%ADD11C,0.06300*%
%ADD12OC8,0.06300*%
%ADD13OC8,0.05600*%
%ADD14C,0.06800*%
%ADD15C,0.07124*%
%ADD16OC8,0.06600*%
%ADD17R,0.06400X0.06400*%
%ADD18C,0.07000*%
%ADD19C,0.00800*%
%ADD20C,0.07400*%
%ADD21OC8,0.07400*%
%ADD22C,0.00000*%
%ADD23C,0.06400*%
%ADD24R,0.07000X0.07000*%
%ADD25OC8,0.06400*%
%ADD26C,0.11811*%
%ADD27C,0.01600*%
%ADD28C,0.01500*%
%ADD29C,0.04756*%
%ADD30C,0.01200*%
%ADD31C,0.08500*%
%ADD32C,0.08268*%
%ADD33C,0.08750*%
D10*
X0024000Y0123223D03*
X0024000Y0137003D03*
D11*
X0049000Y0042310D03*
D12*
X0059000Y0042310D03*
D13*
X0069000Y0047310D03*
X0085000Y0053310D03*
X0125000Y0053310D03*
X0154000Y0053310D03*
X0194000Y0053310D03*
X0207000Y0047310D03*
X0236000Y0060310D03*
X0236000Y0070310D03*
X0261000Y0070310D03*
X0261000Y0060310D03*
X0286000Y0060310D03*
X0286000Y0070310D03*
X0311000Y0070310D03*
X0311000Y0060310D03*
X0336000Y0060310D03*
X0336000Y0070310D03*
X0236000Y0093310D03*
X0226000Y0093310D03*
X0207000Y0087310D03*
X0271000Y0126310D03*
X0289000Y0126310D03*
X0307000Y0126310D03*
X0323000Y0126310D03*
X0323000Y0166310D03*
X0336000Y0172310D03*
X0346000Y0172310D03*
X0307000Y0166310D03*
X0289000Y0166310D03*
X0271000Y0166310D03*
X0069000Y0087310D03*
X0019000Y0073310D03*
X0019000Y0063310D03*
X0025000Y0148310D03*
X0025000Y0188310D03*
D14*
X0087000Y0180310D03*
X0087000Y0163310D03*
X0127000Y0163310D03*
X0151000Y0163310D03*
X0151000Y0180310D03*
X0127000Y0180310D03*
X0191000Y0180310D03*
X0191000Y0163310D03*
X0194000Y0086310D03*
X0194000Y0071310D03*
X0154000Y0071310D03*
X0126000Y0071310D03*
X0126000Y0086310D03*
X0154000Y0086310D03*
X0086000Y0086310D03*
X0086000Y0071310D03*
D15*
X0108000Y0114748D02*
X0108000Y0121872D01*
X0118000Y0121872D02*
X0118000Y0114748D01*
X0128000Y0114748D02*
X0128000Y0121872D01*
X0138000Y0121872D02*
X0138000Y0114748D01*
X0148000Y0114748D02*
X0148000Y0121872D01*
X0158000Y0121872D02*
X0158000Y0114748D01*
X0168000Y0114748D02*
X0168000Y0121872D01*
X0163000Y0134748D02*
X0163000Y0141872D01*
X0173000Y0141872D02*
X0173000Y0134748D01*
X0153000Y0134748D02*
X0153000Y0141872D01*
X0143000Y0141872D02*
X0143000Y0134748D01*
X0133000Y0134748D02*
X0133000Y0141872D01*
X0123000Y0141872D02*
X0123000Y0134748D01*
X0113000Y0134748D02*
X0113000Y0141872D01*
X0103000Y0141872D02*
X0103000Y0134748D01*
D16*
X0074000Y0138310D03*
X0074000Y0128310D03*
X0074000Y0111310D03*
X0074000Y0101310D03*
X0021000Y0046310D03*
X0021000Y0036310D03*
X0021000Y0026310D03*
X0207000Y0101310D03*
X0207000Y0111310D03*
X0207000Y0128310D03*
X0207000Y0138310D03*
X0025000Y0197310D03*
X0025000Y0207310D03*
D17*
X0325000Y0185310D03*
D18*
X0315000Y0185310D03*
X0305000Y0185310D03*
X0295000Y0185310D03*
X0285000Y0185310D03*
X0275000Y0185310D03*
X0285000Y0115310D03*
X0295000Y0115310D03*
X0305000Y0115310D03*
X0315000Y0115310D03*
X0315000Y0099310D03*
X0305000Y0099310D03*
X0295000Y0099310D03*
X0285000Y0099310D03*
X0275000Y0099310D03*
X0265000Y0099310D03*
X0255000Y0099310D03*
X0255000Y0039310D03*
X0245000Y0039310D03*
X0235000Y0039310D03*
X0225000Y0039310D03*
X0265000Y0039310D03*
X0275000Y0039310D03*
X0285000Y0039310D03*
X0295000Y0039310D03*
X0305000Y0039310D03*
X0315000Y0039310D03*
X0325000Y0039310D03*
X0335000Y0039310D03*
D19*
X0005000Y0006310D02*
X0005000Y0216310D01*
X0388000Y0216310D01*
X0395000Y0208310D01*
X0395000Y0166310D01*
X0405000Y0156310D01*
X0405000Y0021310D01*
X0395000Y0011310D01*
X0395000Y0006310D01*
X0005000Y0006310D01*
D20*
X0115000Y0016310D03*
X0125000Y0016310D03*
X0135000Y0016310D03*
X0145000Y0016310D03*
X0155000Y0016310D03*
X0165000Y0016310D03*
X0175000Y0016310D03*
X0185000Y0016310D03*
X0205000Y0016310D03*
X0215000Y0016310D03*
X0225000Y0016310D03*
X0235000Y0016310D03*
X0245000Y0016310D03*
X0255000Y0016310D03*
X0265000Y0016310D03*
X0275000Y0016310D03*
X0295000Y0016310D03*
X0305000Y0016310D03*
X0315000Y0016310D03*
X0325000Y0016310D03*
X0335000Y0016310D03*
X0345000Y0016310D03*
X0355000Y0016310D03*
X0365000Y0016310D03*
X0375000Y0036310D03*
X0385000Y0036310D03*
X0385000Y0206310D03*
X0375000Y0206310D03*
X0345000Y0206310D03*
X0335000Y0206310D03*
X0325000Y0206310D03*
X0315000Y0206310D03*
X0305000Y0206310D03*
X0295000Y0206310D03*
X0285000Y0206310D03*
X0275000Y0206310D03*
X0255000Y0206310D03*
X0245000Y0206310D03*
X0235000Y0206310D03*
X0225000Y0206310D03*
X0215000Y0206310D03*
X0205000Y0206310D03*
X0195000Y0206310D03*
X0185000Y0206310D03*
X0169000Y0206310D03*
X0159000Y0206310D03*
X0149000Y0206310D03*
X0139000Y0206310D03*
X0129000Y0206310D03*
X0119000Y0206310D03*
X0109000Y0206310D03*
X0099000Y0206310D03*
X0089000Y0206310D03*
X0079000Y0206310D03*
D21*
X0375000Y0196310D03*
X0385000Y0196310D03*
X0385000Y0186310D03*
X0375000Y0186310D03*
X0375000Y0176310D03*
X0385000Y0176310D03*
X0385000Y0166310D03*
X0375000Y0166310D03*
X0375000Y0156310D03*
X0385000Y0156310D03*
X0385000Y0146310D03*
X0375000Y0146310D03*
X0375000Y0136310D03*
X0385000Y0136310D03*
X0385000Y0126310D03*
X0375000Y0126310D03*
X0375000Y0116310D03*
X0385000Y0116310D03*
X0385000Y0106310D03*
X0375000Y0106310D03*
X0375000Y0096310D03*
X0385000Y0096310D03*
X0385000Y0086310D03*
X0375000Y0086310D03*
X0375000Y0076310D03*
X0385000Y0076310D03*
X0385000Y0066310D03*
X0375000Y0066310D03*
X0375000Y0056310D03*
X0385000Y0056310D03*
X0385000Y0046310D03*
X0375000Y0046310D03*
D22*
X0378701Y0016310D02*
X0378703Y0016468D01*
X0378709Y0016626D01*
X0378719Y0016784D01*
X0378733Y0016942D01*
X0378751Y0017099D01*
X0378772Y0017256D01*
X0378798Y0017412D01*
X0378828Y0017568D01*
X0378861Y0017723D01*
X0378899Y0017876D01*
X0378940Y0018029D01*
X0378985Y0018181D01*
X0379034Y0018332D01*
X0379087Y0018481D01*
X0379143Y0018629D01*
X0379203Y0018775D01*
X0379267Y0018920D01*
X0379335Y0019063D01*
X0379406Y0019205D01*
X0379480Y0019345D01*
X0379558Y0019482D01*
X0379640Y0019618D01*
X0379724Y0019752D01*
X0379813Y0019883D01*
X0379904Y0020012D01*
X0379999Y0020139D01*
X0380096Y0020264D01*
X0380197Y0020386D01*
X0380301Y0020505D01*
X0380408Y0020622D01*
X0380518Y0020736D01*
X0380631Y0020847D01*
X0380746Y0020956D01*
X0380864Y0021061D01*
X0380985Y0021163D01*
X0381108Y0021263D01*
X0381234Y0021359D01*
X0381362Y0021452D01*
X0381492Y0021542D01*
X0381625Y0021628D01*
X0381760Y0021712D01*
X0381896Y0021791D01*
X0382035Y0021868D01*
X0382176Y0021940D01*
X0382318Y0022010D01*
X0382462Y0022075D01*
X0382608Y0022137D01*
X0382755Y0022195D01*
X0382904Y0022250D01*
X0383054Y0022301D01*
X0383205Y0022348D01*
X0383357Y0022391D01*
X0383510Y0022430D01*
X0383665Y0022466D01*
X0383820Y0022497D01*
X0383976Y0022525D01*
X0384132Y0022549D01*
X0384289Y0022569D01*
X0384447Y0022585D01*
X0384604Y0022597D01*
X0384763Y0022605D01*
X0384921Y0022609D01*
X0385079Y0022609D01*
X0385237Y0022605D01*
X0385396Y0022597D01*
X0385553Y0022585D01*
X0385711Y0022569D01*
X0385868Y0022549D01*
X0386024Y0022525D01*
X0386180Y0022497D01*
X0386335Y0022466D01*
X0386490Y0022430D01*
X0386643Y0022391D01*
X0386795Y0022348D01*
X0386946Y0022301D01*
X0387096Y0022250D01*
X0387245Y0022195D01*
X0387392Y0022137D01*
X0387538Y0022075D01*
X0387682Y0022010D01*
X0387824Y0021940D01*
X0387965Y0021868D01*
X0388104Y0021791D01*
X0388240Y0021712D01*
X0388375Y0021628D01*
X0388508Y0021542D01*
X0388638Y0021452D01*
X0388766Y0021359D01*
X0388892Y0021263D01*
X0389015Y0021163D01*
X0389136Y0021061D01*
X0389254Y0020956D01*
X0389369Y0020847D01*
X0389482Y0020736D01*
X0389592Y0020622D01*
X0389699Y0020505D01*
X0389803Y0020386D01*
X0389904Y0020264D01*
X0390001Y0020139D01*
X0390096Y0020012D01*
X0390187Y0019883D01*
X0390276Y0019752D01*
X0390360Y0019618D01*
X0390442Y0019482D01*
X0390520Y0019345D01*
X0390594Y0019205D01*
X0390665Y0019063D01*
X0390733Y0018920D01*
X0390797Y0018775D01*
X0390857Y0018629D01*
X0390913Y0018481D01*
X0390966Y0018332D01*
X0391015Y0018181D01*
X0391060Y0018029D01*
X0391101Y0017876D01*
X0391139Y0017723D01*
X0391172Y0017568D01*
X0391202Y0017412D01*
X0391228Y0017256D01*
X0391249Y0017099D01*
X0391267Y0016942D01*
X0391281Y0016784D01*
X0391291Y0016626D01*
X0391297Y0016468D01*
X0391299Y0016310D01*
X0391297Y0016152D01*
X0391291Y0015994D01*
X0391281Y0015836D01*
X0391267Y0015678D01*
X0391249Y0015521D01*
X0391228Y0015364D01*
X0391202Y0015208D01*
X0391172Y0015052D01*
X0391139Y0014897D01*
X0391101Y0014744D01*
X0391060Y0014591D01*
X0391015Y0014439D01*
X0390966Y0014288D01*
X0390913Y0014139D01*
X0390857Y0013991D01*
X0390797Y0013845D01*
X0390733Y0013700D01*
X0390665Y0013557D01*
X0390594Y0013415D01*
X0390520Y0013275D01*
X0390442Y0013138D01*
X0390360Y0013002D01*
X0390276Y0012868D01*
X0390187Y0012737D01*
X0390096Y0012608D01*
X0390001Y0012481D01*
X0389904Y0012356D01*
X0389803Y0012234D01*
X0389699Y0012115D01*
X0389592Y0011998D01*
X0389482Y0011884D01*
X0389369Y0011773D01*
X0389254Y0011664D01*
X0389136Y0011559D01*
X0389015Y0011457D01*
X0388892Y0011357D01*
X0388766Y0011261D01*
X0388638Y0011168D01*
X0388508Y0011078D01*
X0388375Y0010992D01*
X0388240Y0010908D01*
X0388104Y0010829D01*
X0387965Y0010752D01*
X0387824Y0010680D01*
X0387682Y0010610D01*
X0387538Y0010545D01*
X0387392Y0010483D01*
X0387245Y0010425D01*
X0387096Y0010370D01*
X0386946Y0010319D01*
X0386795Y0010272D01*
X0386643Y0010229D01*
X0386490Y0010190D01*
X0386335Y0010154D01*
X0386180Y0010123D01*
X0386024Y0010095D01*
X0385868Y0010071D01*
X0385711Y0010051D01*
X0385553Y0010035D01*
X0385396Y0010023D01*
X0385237Y0010015D01*
X0385079Y0010011D01*
X0384921Y0010011D01*
X0384763Y0010015D01*
X0384604Y0010023D01*
X0384447Y0010035D01*
X0384289Y0010051D01*
X0384132Y0010071D01*
X0383976Y0010095D01*
X0383820Y0010123D01*
X0383665Y0010154D01*
X0383510Y0010190D01*
X0383357Y0010229D01*
X0383205Y0010272D01*
X0383054Y0010319D01*
X0382904Y0010370D01*
X0382755Y0010425D01*
X0382608Y0010483D01*
X0382462Y0010545D01*
X0382318Y0010610D01*
X0382176Y0010680D01*
X0382035Y0010752D01*
X0381896Y0010829D01*
X0381760Y0010908D01*
X0381625Y0010992D01*
X0381492Y0011078D01*
X0381362Y0011168D01*
X0381234Y0011261D01*
X0381108Y0011357D01*
X0380985Y0011457D01*
X0380864Y0011559D01*
X0380746Y0011664D01*
X0380631Y0011773D01*
X0380518Y0011884D01*
X0380408Y0011998D01*
X0380301Y0012115D01*
X0380197Y0012234D01*
X0380096Y0012356D01*
X0379999Y0012481D01*
X0379904Y0012608D01*
X0379813Y0012737D01*
X0379724Y0012868D01*
X0379640Y0013002D01*
X0379558Y0013138D01*
X0379480Y0013275D01*
X0379406Y0013415D01*
X0379335Y0013557D01*
X0379267Y0013700D01*
X0379203Y0013845D01*
X0379143Y0013991D01*
X0379087Y0014139D01*
X0379034Y0014288D01*
X0378985Y0014439D01*
X0378940Y0014591D01*
X0378899Y0014744D01*
X0378861Y0014897D01*
X0378828Y0015052D01*
X0378798Y0015208D01*
X0378772Y0015364D01*
X0378751Y0015521D01*
X0378733Y0015678D01*
X0378719Y0015836D01*
X0378709Y0015994D01*
X0378703Y0016152D01*
X0378701Y0016310D01*
X0053701Y0016310D02*
X0053703Y0016468D01*
X0053709Y0016626D01*
X0053719Y0016784D01*
X0053733Y0016942D01*
X0053751Y0017099D01*
X0053772Y0017256D01*
X0053798Y0017412D01*
X0053828Y0017568D01*
X0053861Y0017723D01*
X0053899Y0017876D01*
X0053940Y0018029D01*
X0053985Y0018181D01*
X0054034Y0018332D01*
X0054087Y0018481D01*
X0054143Y0018629D01*
X0054203Y0018775D01*
X0054267Y0018920D01*
X0054335Y0019063D01*
X0054406Y0019205D01*
X0054480Y0019345D01*
X0054558Y0019482D01*
X0054640Y0019618D01*
X0054724Y0019752D01*
X0054813Y0019883D01*
X0054904Y0020012D01*
X0054999Y0020139D01*
X0055096Y0020264D01*
X0055197Y0020386D01*
X0055301Y0020505D01*
X0055408Y0020622D01*
X0055518Y0020736D01*
X0055631Y0020847D01*
X0055746Y0020956D01*
X0055864Y0021061D01*
X0055985Y0021163D01*
X0056108Y0021263D01*
X0056234Y0021359D01*
X0056362Y0021452D01*
X0056492Y0021542D01*
X0056625Y0021628D01*
X0056760Y0021712D01*
X0056896Y0021791D01*
X0057035Y0021868D01*
X0057176Y0021940D01*
X0057318Y0022010D01*
X0057462Y0022075D01*
X0057608Y0022137D01*
X0057755Y0022195D01*
X0057904Y0022250D01*
X0058054Y0022301D01*
X0058205Y0022348D01*
X0058357Y0022391D01*
X0058510Y0022430D01*
X0058665Y0022466D01*
X0058820Y0022497D01*
X0058976Y0022525D01*
X0059132Y0022549D01*
X0059289Y0022569D01*
X0059447Y0022585D01*
X0059604Y0022597D01*
X0059763Y0022605D01*
X0059921Y0022609D01*
X0060079Y0022609D01*
X0060237Y0022605D01*
X0060396Y0022597D01*
X0060553Y0022585D01*
X0060711Y0022569D01*
X0060868Y0022549D01*
X0061024Y0022525D01*
X0061180Y0022497D01*
X0061335Y0022466D01*
X0061490Y0022430D01*
X0061643Y0022391D01*
X0061795Y0022348D01*
X0061946Y0022301D01*
X0062096Y0022250D01*
X0062245Y0022195D01*
X0062392Y0022137D01*
X0062538Y0022075D01*
X0062682Y0022010D01*
X0062824Y0021940D01*
X0062965Y0021868D01*
X0063104Y0021791D01*
X0063240Y0021712D01*
X0063375Y0021628D01*
X0063508Y0021542D01*
X0063638Y0021452D01*
X0063766Y0021359D01*
X0063892Y0021263D01*
X0064015Y0021163D01*
X0064136Y0021061D01*
X0064254Y0020956D01*
X0064369Y0020847D01*
X0064482Y0020736D01*
X0064592Y0020622D01*
X0064699Y0020505D01*
X0064803Y0020386D01*
X0064904Y0020264D01*
X0065001Y0020139D01*
X0065096Y0020012D01*
X0065187Y0019883D01*
X0065276Y0019752D01*
X0065360Y0019618D01*
X0065442Y0019482D01*
X0065520Y0019345D01*
X0065594Y0019205D01*
X0065665Y0019063D01*
X0065733Y0018920D01*
X0065797Y0018775D01*
X0065857Y0018629D01*
X0065913Y0018481D01*
X0065966Y0018332D01*
X0066015Y0018181D01*
X0066060Y0018029D01*
X0066101Y0017876D01*
X0066139Y0017723D01*
X0066172Y0017568D01*
X0066202Y0017412D01*
X0066228Y0017256D01*
X0066249Y0017099D01*
X0066267Y0016942D01*
X0066281Y0016784D01*
X0066291Y0016626D01*
X0066297Y0016468D01*
X0066299Y0016310D01*
X0066297Y0016152D01*
X0066291Y0015994D01*
X0066281Y0015836D01*
X0066267Y0015678D01*
X0066249Y0015521D01*
X0066228Y0015364D01*
X0066202Y0015208D01*
X0066172Y0015052D01*
X0066139Y0014897D01*
X0066101Y0014744D01*
X0066060Y0014591D01*
X0066015Y0014439D01*
X0065966Y0014288D01*
X0065913Y0014139D01*
X0065857Y0013991D01*
X0065797Y0013845D01*
X0065733Y0013700D01*
X0065665Y0013557D01*
X0065594Y0013415D01*
X0065520Y0013275D01*
X0065442Y0013138D01*
X0065360Y0013002D01*
X0065276Y0012868D01*
X0065187Y0012737D01*
X0065096Y0012608D01*
X0065001Y0012481D01*
X0064904Y0012356D01*
X0064803Y0012234D01*
X0064699Y0012115D01*
X0064592Y0011998D01*
X0064482Y0011884D01*
X0064369Y0011773D01*
X0064254Y0011664D01*
X0064136Y0011559D01*
X0064015Y0011457D01*
X0063892Y0011357D01*
X0063766Y0011261D01*
X0063638Y0011168D01*
X0063508Y0011078D01*
X0063375Y0010992D01*
X0063240Y0010908D01*
X0063104Y0010829D01*
X0062965Y0010752D01*
X0062824Y0010680D01*
X0062682Y0010610D01*
X0062538Y0010545D01*
X0062392Y0010483D01*
X0062245Y0010425D01*
X0062096Y0010370D01*
X0061946Y0010319D01*
X0061795Y0010272D01*
X0061643Y0010229D01*
X0061490Y0010190D01*
X0061335Y0010154D01*
X0061180Y0010123D01*
X0061024Y0010095D01*
X0060868Y0010071D01*
X0060711Y0010051D01*
X0060553Y0010035D01*
X0060396Y0010023D01*
X0060237Y0010015D01*
X0060079Y0010011D01*
X0059921Y0010011D01*
X0059763Y0010015D01*
X0059604Y0010023D01*
X0059447Y0010035D01*
X0059289Y0010051D01*
X0059132Y0010071D01*
X0058976Y0010095D01*
X0058820Y0010123D01*
X0058665Y0010154D01*
X0058510Y0010190D01*
X0058357Y0010229D01*
X0058205Y0010272D01*
X0058054Y0010319D01*
X0057904Y0010370D01*
X0057755Y0010425D01*
X0057608Y0010483D01*
X0057462Y0010545D01*
X0057318Y0010610D01*
X0057176Y0010680D01*
X0057035Y0010752D01*
X0056896Y0010829D01*
X0056760Y0010908D01*
X0056625Y0010992D01*
X0056492Y0011078D01*
X0056362Y0011168D01*
X0056234Y0011261D01*
X0056108Y0011357D01*
X0055985Y0011457D01*
X0055864Y0011559D01*
X0055746Y0011664D01*
X0055631Y0011773D01*
X0055518Y0011884D01*
X0055408Y0011998D01*
X0055301Y0012115D01*
X0055197Y0012234D01*
X0055096Y0012356D01*
X0054999Y0012481D01*
X0054904Y0012608D01*
X0054813Y0012737D01*
X0054724Y0012868D01*
X0054640Y0013002D01*
X0054558Y0013138D01*
X0054480Y0013275D01*
X0054406Y0013415D01*
X0054335Y0013557D01*
X0054267Y0013700D01*
X0054203Y0013845D01*
X0054143Y0013991D01*
X0054087Y0014139D01*
X0054034Y0014288D01*
X0053985Y0014439D01*
X0053940Y0014591D01*
X0053899Y0014744D01*
X0053861Y0014897D01*
X0053828Y0015052D01*
X0053798Y0015208D01*
X0053772Y0015364D01*
X0053751Y0015521D01*
X0053733Y0015678D01*
X0053719Y0015836D01*
X0053709Y0015994D01*
X0053703Y0016152D01*
X0053701Y0016310D01*
X0058701Y0206310D02*
X0058703Y0206468D01*
X0058709Y0206626D01*
X0058719Y0206784D01*
X0058733Y0206942D01*
X0058751Y0207099D01*
X0058772Y0207256D01*
X0058798Y0207412D01*
X0058828Y0207568D01*
X0058861Y0207723D01*
X0058899Y0207876D01*
X0058940Y0208029D01*
X0058985Y0208181D01*
X0059034Y0208332D01*
X0059087Y0208481D01*
X0059143Y0208629D01*
X0059203Y0208775D01*
X0059267Y0208920D01*
X0059335Y0209063D01*
X0059406Y0209205D01*
X0059480Y0209345D01*
X0059558Y0209482D01*
X0059640Y0209618D01*
X0059724Y0209752D01*
X0059813Y0209883D01*
X0059904Y0210012D01*
X0059999Y0210139D01*
X0060096Y0210264D01*
X0060197Y0210386D01*
X0060301Y0210505D01*
X0060408Y0210622D01*
X0060518Y0210736D01*
X0060631Y0210847D01*
X0060746Y0210956D01*
X0060864Y0211061D01*
X0060985Y0211163D01*
X0061108Y0211263D01*
X0061234Y0211359D01*
X0061362Y0211452D01*
X0061492Y0211542D01*
X0061625Y0211628D01*
X0061760Y0211712D01*
X0061896Y0211791D01*
X0062035Y0211868D01*
X0062176Y0211940D01*
X0062318Y0212010D01*
X0062462Y0212075D01*
X0062608Y0212137D01*
X0062755Y0212195D01*
X0062904Y0212250D01*
X0063054Y0212301D01*
X0063205Y0212348D01*
X0063357Y0212391D01*
X0063510Y0212430D01*
X0063665Y0212466D01*
X0063820Y0212497D01*
X0063976Y0212525D01*
X0064132Y0212549D01*
X0064289Y0212569D01*
X0064447Y0212585D01*
X0064604Y0212597D01*
X0064763Y0212605D01*
X0064921Y0212609D01*
X0065079Y0212609D01*
X0065237Y0212605D01*
X0065396Y0212597D01*
X0065553Y0212585D01*
X0065711Y0212569D01*
X0065868Y0212549D01*
X0066024Y0212525D01*
X0066180Y0212497D01*
X0066335Y0212466D01*
X0066490Y0212430D01*
X0066643Y0212391D01*
X0066795Y0212348D01*
X0066946Y0212301D01*
X0067096Y0212250D01*
X0067245Y0212195D01*
X0067392Y0212137D01*
X0067538Y0212075D01*
X0067682Y0212010D01*
X0067824Y0211940D01*
X0067965Y0211868D01*
X0068104Y0211791D01*
X0068240Y0211712D01*
X0068375Y0211628D01*
X0068508Y0211542D01*
X0068638Y0211452D01*
X0068766Y0211359D01*
X0068892Y0211263D01*
X0069015Y0211163D01*
X0069136Y0211061D01*
X0069254Y0210956D01*
X0069369Y0210847D01*
X0069482Y0210736D01*
X0069592Y0210622D01*
X0069699Y0210505D01*
X0069803Y0210386D01*
X0069904Y0210264D01*
X0070001Y0210139D01*
X0070096Y0210012D01*
X0070187Y0209883D01*
X0070276Y0209752D01*
X0070360Y0209618D01*
X0070442Y0209482D01*
X0070520Y0209345D01*
X0070594Y0209205D01*
X0070665Y0209063D01*
X0070733Y0208920D01*
X0070797Y0208775D01*
X0070857Y0208629D01*
X0070913Y0208481D01*
X0070966Y0208332D01*
X0071015Y0208181D01*
X0071060Y0208029D01*
X0071101Y0207876D01*
X0071139Y0207723D01*
X0071172Y0207568D01*
X0071202Y0207412D01*
X0071228Y0207256D01*
X0071249Y0207099D01*
X0071267Y0206942D01*
X0071281Y0206784D01*
X0071291Y0206626D01*
X0071297Y0206468D01*
X0071299Y0206310D01*
X0071297Y0206152D01*
X0071291Y0205994D01*
X0071281Y0205836D01*
X0071267Y0205678D01*
X0071249Y0205521D01*
X0071228Y0205364D01*
X0071202Y0205208D01*
X0071172Y0205052D01*
X0071139Y0204897D01*
X0071101Y0204744D01*
X0071060Y0204591D01*
X0071015Y0204439D01*
X0070966Y0204288D01*
X0070913Y0204139D01*
X0070857Y0203991D01*
X0070797Y0203845D01*
X0070733Y0203700D01*
X0070665Y0203557D01*
X0070594Y0203415D01*
X0070520Y0203275D01*
X0070442Y0203138D01*
X0070360Y0203002D01*
X0070276Y0202868D01*
X0070187Y0202737D01*
X0070096Y0202608D01*
X0070001Y0202481D01*
X0069904Y0202356D01*
X0069803Y0202234D01*
X0069699Y0202115D01*
X0069592Y0201998D01*
X0069482Y0201884D01*
X0069369Y0201773D01*
X0069254Y0201664D01*
X0069136Y0201559D01*
X0069015Y0201457D01*
X0068892Y0201357D01*
X0068766Y0201261D01*
X0068638Y0201168D01*
X0068508Y0201078D01*
X0068375Y0200992D01*
X0068240Y0200908D01*
X0068104Y0200829D01*
X0067965Y0200752D01*
X0067824Y0200680D01*
X0067682Y0200610D01*
X0067538Y0200545D01*
X0067392Y0200483D01*
X0067245Y0200425D01*
X0067096Y0200370D01*
X0066946Y0200319D01*
X0066795Y0200272D01*
X0066643Y0200229D01*
X0066490Y0200190D01*
X0066335Y0200154D01*
X0066180Y0200123D01*
X0066024Y0200095D01*
X0065868Y0200071D01*
X0065711Y0200051D01*
X0065553Y0200035D01*
X0065396Y0200023D01*
X0065237Y0200015D01*
X0065079Y0200011D01*
X0064921Y0200011D01*
X0064763Y0200015D01*
X0064604Y0200023D01*
X0064447Y0200035D01*
X0064289Y0200051D01*
X0064132Y0200071D01*
X0063976Y0200095D01*
X0063820Y0200123D01*
X0063665Y0200154D01*
X0063510Y0200190D01*
X0063357Y0200229D01*
X0063205Y0200272D01*
X0063054Y0200319D01*
X0062904Y0200370D01*
X0062755Y0200425D01*
X0062608Y0200483D01*
X0062462Y0200545D01*
X0062318Y0200610D01*
X0062176Y0200680D01*
X0062035Y0200752D01*
X0061896Y0200829D01*
X0061760Y0200908D01*
X0061625Y0200992D01*
X0061492Y0201078D01*
X0061362Y0201168D01*
X0061234Y0201261D01*
X0061108Y0201357D01*
X0060985Y0201457D01*
X0060864Y0201559D01*
X0060746Y0201664D01*
X0060631Y0201773D01*
X0060518Y0201884D01*
X0060408Y0201998D01*
X0060301Y0202115D01*
X0060197Y0202234D01*
X0060096Y0202356D01*
X0059999Y0202481D01*
X0059904Y0202608D01*
X0059813Y0202737D01*
X0059724Y0202868D01*
X0059640Y0203002D01*
X0059558Y0203138D01*
X0059480Y0203275D01*
X0059406Y0203415D01*
X0059335Y0203557D01*
X0059267Y0203700D01*
X0059203Y0203845D01*
X0059143Y0203991D01*
X0059087Y0204139D01*
X0059034Y0204288D01*
X0058985Y0204439D01*
X0058940Y0204591D01*
X0058899Y0204744D01*
X0058861Y0204897D01*
X0058828Y0205052D01*
X0058798Y0205208D01*
X0058772Y0205364D01*
X0058751Y0205521D01*
X0058733Y0205678D01*
X0058719Y0205836D01*
X0058709Y0205994D01*
X0058703Y0206152D01*
X0058701Y0206310D01*
X0353701Y0206310D02*
X0353703Y0206468D01*
X0353709Y0206626D01*
X0353719Y0206784D01*
X0353733Y0206942D01*
X0353751Y0207099D01*
X0353772Y0207256D01*
X0353798Y0207412D01*
X0353828Y0207568D01*
X0353861Y0207723D01*
X0353899Y0207876D01*
X0353940Y0208029D01*
X0353985Y0208181D01*
X0354034Y0208332D01*
X0354087Y0208481D01*
X0354143Y0208629D01*
X0354203Y0208775D01*
X0354267Y0208920D01*
X0354335Y0209063D01*
X0354406Y0209205D01*
X0354480Y0209345D01*
X0354558Y0209482D01*
X0354640Y0209618D01*
X0354724Y0209752D01*
X0354813Y0209883D01*
X0354904Y0210012D01*
X0354999Y0210139D01*
X0355096Y0210264D01*
X0355197Y0210386D01*
X0355301Y0210505D01*
X0355408Y0210622D01*
X0355518Y0210736D01*
X0355631Y0210847D01*
X0355746Y0210956D01*
X0355864Y0211061D01*
X0355985Y0211163D01*
X0356108Y0211263D01*
X0356234Y0211359D01*
X0356362Y0211452D01*
X0356492Y0211542D01*
X0356625Y0211628D01*
X0356760Y0211712D01*
X0356896Y0211791D01*
X0357035Y0211868D01*
X0357176Y0211940D01*
X0357318Y0212010D01*
X0357462Y0212075D01*
X0357608Y0212137D01*
X0357755Y0212195D01*
X0357904Y0212250D01*
X0358054Y0212301D01*
X0358205Y0212348D01*
X0358357Y0212391D01*
X0358510Y0212430D01*
X0358665Y0212466D01*
X0358820Y0212497D01*
X0358976Y0212525D01*
X0359132Y0212549D01*
X0359289Y0212569D01*
X0359447Y0212585D01*
X0359604Y0212597D01*
X0359763Y0212605D01*
X0359921Y0212609D01*
X0360079Y0212609D01*
X0360237Y0212605D01*
X0360396Y0212597D01*
X0360553Y0212585D01*
X0360711Y0212569D01*
X0360868Y0212549D01*
X0361024Y0212525D01*
X0361180Y0212497D01*
X0361335Y0212466D01*
X0361490Y0212430D01*
X0361643Y0212391D01*
X0361795Y0212348D01*
X0361946Y0212301D01*
X0362096Y0212250D01*
X0362245Y0212195D01*
X0362392Y0212137D01*
X0362538Y0212075D01*
X0362682Y0212010D01*
X0362824Y0211940D01*
X0362965Y0211868D01*
X0363104Y0211791D01*
X0363240Y0211712D01*
X0363375Y0211628D01*
X0363508Y0211542D01*
X0363638Y0211452D01*
X0363766Y0211359D01*
X0363892Y0211263D01*
X0364015Y0211163D01*
X0364136Y0211061D01*
X0364254Y0210956D01*
X0364369Y0210847D01*
X0364482Y0210736D01*
X0364592Y0210622D01*
X0364699Y0210505D01*
X0364803Y0210386D01*
X0364904Y0210264D01*
X0365001Y0210139D01*
X0365096Y0210012D01*
X0365187Y0209883D01*
X0365276Y0209752D01*
X0365360Y0209618D01*
X0365442Y0209482D01*
X0365520Y0209345D01*
X0365594Y0209205D01*
X0365665Y0209063D01*
X0365733Y0208920D01*
X0365797Y0208775D01*
X0365857Y0208629D01*
X0365913Y0208481D01*
X0365966Y0208332D01*
X0366015Y0208181D01*
X0366060Y0208029D01*
X0366101Y0207876D01*
X0366139Y0207723D01*
X0366172Y0207568D01*
X0366202Y0207412D01*
X0366228Y0207256D01*
X0366249Y0207099D01*
X0366267Y0206942D01*
X0366281Y0206784D01*
X0366291Y0206626D01*
X0366297Y0206468D01*
X0366299Y0206310D01*
X0366297Y0206152D01*
X0366291Y0205994D01*
X0366281Y0205836D01*
X0366267Y0205678D01*
X0366249Y0205521D01*
X0366228Y0205364D01*
X0366202Y0205208D01*
X0366172Y0205052D01*
X0366139Y0204897D01*
X0366101Y0204744D01*
X0366060Y0204591D01*
X0366015Y0204439D01*
X0365966Y0204288D01*
X0365913Y0204139D01*
X0365857Y0203991D01*
X0365797Y0203845D01*
X0365733Y0203700D01*
X0365665Y0203557D01*
X0365594Y0203415D01*
X0365520Y0203275D01*
X0365442Y0203138D01*
X0365360Y0203002D01*
X0365276Y0202868D01*
X0365187Y0202737D01*
X0365096Y0202608D01*
X0365001Y0202481D01*
X0364904Y0202356D01*
X0364803Y0202234D01*
X0364699Y0202115D01*
X0364592Y0201998D01*
X0364482Y0201884D01*
X0364369Y0201773D01*
X0364254Y0201664D01*
X0364136Y0201559D01*
X0364015Y0201457D01*
X0363892Y0201357D01*
X0363766Y0201261D01*
X0363638Y0201168D01*
X0363508Y0201078D01*
X0363375Y0200992D01*
X0363240Y0200908D01*
X0363104Y0200829D01*
X0362965Y0200752D01*
X0362824Y0200680D01*
X0362682Y0200610D01*
X0362538Y0200545D01*
X0362392Y0200483D01*
X0362245Y0200425D01*
X0362096Y0200370D01*
X0361946Y0200319D01*
X0361795Y0200272D01*
X0361643Y0200229D01*
X0361490Y0200190D01*
X0361335Y0200154D01*
X0361180Y0200123D01*
X0361024Y0200095D01*
X0360868Y0200071D01*
X0360711Y0200051D01*
X0360553Y0200035D01*
X0360396Y0200023D01*
X0360237Y0200015D01*
X0360079Y0200011D01*
X0359921Y0200011D01*
X0359763Y0200015D01*
X0359604Y0200023D01*
X0359447Y0200035D01*
X0359289Y0200051D01*
X0359132Y0200071D01*
X0358976Y0200095D01*
X0358820Y0200123D01*
X0358665Y0200154D01*
X0358510Y0200190D01*
X0358357Y0200229D01*
X0358205Y0200272D01*
X0358054Y0200319D01*
X0357904Y0200370D01*
X0357755Y0200425D01*
X0357608Y0200483D01*
X0357462Y0200545D01*
X0357318Y0200610D01*
X0357176Y0200680D01*
X0357035Y0200752D01*
X0356896Y0200829D01*
X0356760Y0200908D01*
X0356625Y0200992D01*
X0356492Y0201078D01*
X0356362Y0201168D01*
X0356234Y0201261D01*
X0356108Y0201357D01*
X0355985Y0201457D01*
X0355864Y0201559D01*
X0355746Y0201664D01*
X0355631Y0201773D01*
X0355518Y0201884D01*
X0355408Y0201998D01*
X0355301Y0202115D01*
X0355197Y0202234D01*
X0355096Y0202356D01*
X0354999Y0202481D01*
X0354904Y0202608D01*
X0354813Y0202737D01*
X0354724Y0202868D01*
X0354640Y0203002D01*
X0354558Y0203138D01*
X0354480Y0203275D01*
X0354406Y0203415D01*
X0354335Y0203557D01*
X0354267Y0203700D01*
X0354203Y0203845D01*
X0354143Y0203991D01*
X0354087Y0204139D01*
X0354034Y0204288D01*
X0353985Y0204439D01*
X0353940Y0204591D01*
X0353899Y0204744D01*
X0353861Y0204897D01*
X0353828Y0205052D01*
X0353798Y0205208D01*
X0353772Y0205364D01*
X0353751Y0205521D01*
X0353733Y0205678D01*
X0353719Y0205836D01*
X0353709Y0205994D01*
X0353703Y0206152D01*
X0353701Y0206310D01*
D23*
X0106000Y0041210D02*
X0099600Y0041210D01*
X0080400Y0041210D02*
X0074000Y0041210D01*
X0074000Y0023410D02*
X0080400Y0023410D01*
X0099600Y0023410D02*
X0106000Y0023410D01*
D24*
X0345000Y0039310D03*
D25*
X0235000Y0131310D03*
X0235000Y0141310D03*
X0235000Y0151310D03*
X0235000Y0161310D03*
X0235000Y0171310D03*
X0235000Y0181310D03*
X0052000Y0181310D03*
X0052000Y0171310D03*
X0052000Y0161310D03*
X0052000Y0151310D03*
X0052000Y0141310D03*
X0052000Y0131310D03*
D26*
X0053780Y0097302D03*
X0035276Y0097302D03*
X0016772Y0097302D03*
D27*
X0024014Y0094128D02*
X0028033Y0094128D01*
X0028574Y0092824D02*
X0027370Y0095730D01*
X0027370Y0098875D01*
X0028574Y0101780D01*
X0030797Y0104004D01*
X0033703Y0105208D01*
X0036848Y0105208D01*
X0037200Y0105062D01*
X0037200Y0121867D01*
X0037626Y0122896D01*
X0038414Y0123684D01*
X0042414Y0127684D01*
X0043443Y0128110D01*
X0047846Y0128110D01*
X0046800Y0129156D01*
X0046800Y0133464D01*
X0048795Y0135458D01*
X0047460Y0136011D01*
X0045702Y0137770D01*
X0044750Y0140067D01*
X0044750Y0142553D01*
X0045702Y0144850D01*
X0047460Y0146608D01*
X0048995Y0147244D01*
X0047000Y0149239D01*
X0047000Y0151110D01*
X0051800Y0151110D01*
X0051800Y0151510D01*
X0047000Y0151510D01*
X0047000Y0153381D01*
X0049788Y0156169D01*
X0046800Y0159156D01*
X0046800Y0163464D01*
X0049646Y0166310D01*
X0046800Y0169156D01*
X0046800Y0173464D01*
X0049646Y0176310D01*
X0046800Y0179156D01*
X0046800Y0183464D01*
X0049846Y0186510D01*
X0054154Y0186510D01*
X0057200Y0183464D01*
X0057200Y0179156D01*
X0054354Y0176310D01*
X0057200Y0173464D01*
X0057200Y0169156D01*
X0054354Y0166310D01*
X0057200Y0163464D01*
X0057200Y0159156D01*
X0054212Y0156169D01*
X0057000Y0153381D01*
X0057000Y0151510D01*
X0052200Y0151510D01*
X0052200Y0151110D01*
X0057000Y0151110D01*
X0057000Y0149239D01*
X0055321Y0147560D01*
X0056411Y0147560D01*
X0064750Y0155899D01*
X0064750Y0175553D01*
X0065702Y0177850D01*
X0067460Y0179608D01*
X0073460Y0185608D01*
X0075757Y0186560D01*
X0088243Y0186560D01*
X0090540Y0185608D01*
X0092298Y0183850D01*
X0093250Y0181553D01*
X0093250Y0179067D01*
X0092298Y0176770D01*
X0090540Y0175011D01*
X0088243Y0174060D01*
X0079589Y0174060D01*
X0077250Y0171721D01*
X0077250Y0156560D01*
X0082243Y0156560D01*
X0084540Y0155608D01*
X0085592Y0154556D01*
X0086220Y0154092D01*
X0086463Y0153685D01*
X0086798Y0153350D01*
X0087097Y0152629D01*
X0087963Y0151185D01*
X0088298Y0150850D01*
X0088597Y0150129D01*
X0088999Y0149459D01*
X0089069Y0148991D01*
X0089250Y0148553D01*
X0089250Y0147772D01*
X0089365Y0147000D01*
X0089250Y0146541D01*
X0089250Y0127240D01*
X0089341Y0126940D01*
X0089340Y0126925D01*
X0089471Y0126958D01*
X0089792Y0126910D01*
X0099517Y0126910D01*
X0100473Y0126514D01*
X0101204Y0125783D01*
X0102898Y0124089D01*
X0103285Y0125023D01*
X0104849Y0126588D01*
X0106894Y0127434D01*
X0109106Y0127434D01*
X0111151Y0126588D01*
X0112715Y0125023D01*
X0113000Y0124336D01*
X0113285Y0125023D01*
X0114849Y0126588D01*
X0116894Y0127434D01*
X0119106Y0127434D01*
X0121151Y0126588D01*
X0122715Y0125023D01*
X0123000Y0124336D01*
X0123285Y0125023D01*
X0124849Y0126588D01*
X0126894Y0127434D01*
X0129106Y0127434D01*
X0131151Y0126588D01*
X0132715Y0125023D01*
X0133106Y0124079D01*
X0133414Y0124683D01*
X0133910Y0125365D01*
X0134507Y0125962D01*
X0135190Y0126458D01*
X0135942Y0126841D01*
X0136744Y0127102D01*
X0137578Y0127234D01*
X0137619Y0127234D01*
X0137619Y0118691D01*
X0138381Y0118691D01*
X0138381Y0127234D01*
X0138422Y0127234D01*
X0139256Y0127102D01*
X0140058Y0126841D01*
X0140810Y0126458D01*
X0141493Y0125962D01*
X0142090Y0125365D01*
X0142586Y0124683D01*
X0142894Y0124079D01*
X0143285Y0125023D01*
X0144849Y0126588D01*
X0146894Y0127434D01*
X0149106Y0127434D01*
X0151151Y0126588D01*
X0152715Y0125023D01*
X0153000Y0124336D01*
X0153285Y0125023D01*
X0154849Y0126588D01*
X0156894Y0127434D01*
X0159106Y0127434D01*
X0161151Y0126588D01*
X0162715Y0125023D01*
X0163000Y0124336D01*
X0163285Y0125023D01*
X0164849Y0126588D01*
X0166894Y0127434D01*
X0169106Y0127434D01*
X0171151Y0126588D01*
X0172715Y0125023D01*
X0172907Y0124560D01*
X0188750Y0124560D01*
X0188750Y0127553D01*
X0189702Y0129850D01*
X0191460Y0131608D01*
X0193757Y0132560D01*
X0196243Y0132560D01*
X0198540Y0131608D01*
X0200298Y0129850D01*
X0201250Y0127553D01*
X0201250Y0125573D01*
X0207927Y0117560D01*
X0208243Y0117560D01*
X0210540Y0116608D01*
X0212298Y0114850D01*
X0213250Y0112553D01*
X0213250Y0110067D01*
X0213009Y0109486D01*
X0213480Y0109865D01*
X0213480Y0117801D01*
X0209572Y0123386D01*
X0209195Y0123010D01*
X0204805Y0123010D01*
X0201700Y0126115D01*
X0201700Y0130505D01*
X0204505Y0133310D01*
X0201700Y0136115D01*
X0201700Y0140505D01*
X0204805Y0143610D01*
X0209195Y0143610D01*
X0212300Y0140505D01*
X0212300Y0136115D01*
X0209495Y0133310D01*
X0212300Y0130505D01*
X0212300Y0128558D01*
X0218080Y0120297D01*
X0218284Y0120093D01*
X0218373Y0119878D01*
X0218507Y0119687D01*
X0218569Y0119404D01*
X0218680Y0119137D01*
X0218680Y0118904D01*
X0218730Y0118677D01*
X0218680Y0118392D01*
X0218680Y0108993D01*
X0218720Y0108855D01*
X0218680Y0108480D01*
X0218680Y0108103D01*
X0218625Y0107970D01*
X0218609Y0107827D01*
X0218428Y0107496D01*
X0218284Y0107147D01*
X0218182Y0107045D01*
X0218113Y0106919D01*
X0217819Y0106682D01*
X0217553Y0106416D01*
X0217420Y0106361D01*
X0212300Y0102239D01*
X0212300Y0099115D01*
X0209600Y0096415D01*
X0209600Y0091498D01*
X0211800Y0089298D01*
X0211800Y0085322D01*
X0208988Y0082510D01*
X0205012Y0082510D01*
X0202200Y0085322D01*
X0202200Y0089298D01*
X0204400Y0091498D01*
X0204400Y0096415D01*
X0201700Y0099115D01*
X0201700Y0103505D01*
X0203255Y0105060D01*
X0200250Y0105060D01*
X0200250Y0085067D01*
X0199298Y0082770D01*
X0197540Y0081011D01*
X0195243Y0080060D01*
X0192757Y0080060D01*
X0190460Y0081011D01*
X0189600Y0081871D01*
X0189600Y0080387D01*
X0190077Y0079910D01*
X0191517Y0079910D01*
X0192473Y0079514D01*
X0193204Y0078783D01*
X0193600Y0077827D01*
X0193600Y0076793D01*
X0193566Y0076710D01*
X0195074Y0076710D01*
X0197059Y0075888D01*
X0198578Y0074369D01*
X0199400Y0072384D01*
X0199400Y0070236D01*
X0198578Y0068251D01*
X0197059Y0066732D01*
X0195074Y0065910D01*
X0192926Y0065910D01*
X0190941Y0066732D01*
X0189422Y0068251D01*
X0188600Y0070236D01*
X0188600Y0071233D01*
X0185473Y0068106D01*
X0184517Y0067710D01*
X0180483Y0067710D01*
X0179527Y0068106D01*
X0178796Y0068837D01*
X0178796Y0068837D01*
X0176796Y0070837D01*
X0176400Y0071793D01*
X0176400Y0112060D01*
X0172907Y0112060D01*
X0172715Y0111597D01*
X0171151Y0110032D01*
X0169106Y0109186D01*
X0166894Y0109186D01*
X0164849Y0110032D01*
X0164250Y0110632D01*
X0164250Y0089067D01*
X0163298Y0086770D01*
X0160250Y0083721D01*
X0160250Y0070067D01*
X0159298Y0067770D01*
X0157540Y0066011D01*
X0155243Y0065060D01*
X0153535Y0065060D01*
X0153480Y0064896D01*
X0153413Y0064819D01*
X0153374Y0064724D01*
X0153050Y0064400D01*
X0152750Y0064055D01*
X0152659Y0064009D01*
X0140586Y0051936D01*
X0139557Y0051510D01*
X0129800Y0051510D01*
X0129800Y0051322D01*
X0126988Y0048510D01*
X0124089Y0048510D01*
X0122331Y0046752D01*
X0122331Y0046752D01*
X0121558Y0045979D01*
X0120547Y0045560D01*
X0108476Y0045560D01*
X0108621Y0045486D01*
X0109257Y0045024D01*
X0109814Y0044467D01*
X0110276Y0043831D01*
X0110634Y0043129D01*
X0110877Y0042381D01*
X0111000Y0041603D01*
X0111000Y0041410D01*
X0103000Y0041410D01*
X0103000Y0041010D01*
X0111000Y0041010D01*
X0111000Y0040816D01*
X0110877Y0040039D01*
X0110634Y0039291D01*
X0110276Y0038589D01*
X0109814Y0037953D01*
X0109257Y0037396D01*
X0108621Y0036934D01*
X0107919Y0036576D01*
X0107171Y0036333D01*
X0106394Y0036210D01*
X0103000Y0036210D01*
X0103000Y0041010D01*
X0102600Y0041010D01*
X0094600Y0041010D01*
X0094600Y0040816D01*
X0094723Y0040039D01*
X0094966Y0039291D01*
X0095324Y0038589D01*
X0095786Y0037953D01*
X0096343Y0037396D01*
X0096979Y0036934D01*
X0097681Y0036576D01*
X0098429Y0036333D01*
X0099206Y0036210D01*
X0102600Y0036210D01*
X0102600Y0041010D01*
X0102600Y0041410D01*
X0094600Y0041410D01*
X0094600Y0041603D01*
X0094723Y0042381D01*
X0094966Y0043129D01*
X0095324Y0043831D01*
X0095786Y0044467D01*
X0096343Y0045024D01*
X0096979Y0045486D01*
X0097124Y0045560D01*
X0082876Y0045560D01*
X0083021Y0045486D01*
X0083657Y0045024D01*
X0084214Y0044467D01*
X0084676Y0043831D01*
X0085034Y0043129D01*
X0085277Y0042381D01*
X0085400Y0041603D01*
X0085400Y0041410D01*
X0077400Y0041410D01*
X0077400Y0041010D01*
X0085400Y0041010D01*
X0085400Y0040816D01*
X0085277Y0040039D01*
X0085034Y0039291D01*
X0084676Y0038589D01*
X0084214Y0037953D01*
X0083657Y0037396D01*
X0083021Y0036934D01*
X0082319Y0036576D01*
X0081571Y0036333D01*
X0080794Y0036210D01*
X0077400Y0036210D01*
X0077400Y0041010D01*
X0077000Y0041010D01*
X0069000Y0041010D01*
X0069000Y0040816D01*
X0069123Y0040039D01*
X0069366Y0039291D01*
X0069724Y0038589D01*
X0070186Y0037953D01*
X0070743Y0037396D01*
X0071379Y0036934D01*
X0072081Y0036576D01*
X0072829Y0036333D01*
X0073606Y0036210D01*
X0077000Y0036210D01*
X0077000Y0041010D01*
X0077000Y0041410D01*
X0069000Y0041410D01*
X0069000Y0041603D01*
X0069123Y0042381D01*
X0069230Y0042710D01*
X0069000Y0042710D01*
X0069000Y0047310D01*
X0069000Y0047310D01*
X0064400Y0047310D01*
X0064400Y0049215D01*
X0064745Y0049560D01*
X0056139Y0049560D01*
X0052586Y0046007D01*
X0053366Y0045227D01*
X0054050Y0043576D01*
X0054050Y0044360D01*
X0056950Y0047260D01*
X0059000Y0047260D01*
X0059000Y0042310D01*
X0059000Y0042310D01*
X0059000Y0047260D01*
X0061050Y0047260D01*
X0063950Y0044360D01*
X0063950Y0042310D01*
X0059000Y0042310D01*
X0059000Y0042310D01*
X0063950Y0042310D01*
X0063950Y0040260D01*
X0061050Y0037360D01*
X0059000Y0037360D01*
X0059000Y0042310D01*
X0059000Y0042310D01*
X0059000Y0037360D01*
X0056950Y0037360D01*
X0054050Y0040260D01*
X0054050Y0041044D01*
X0053366Y0039393D01*
X0051917Y0037944D01*
X0051750Y0037875D01*
X0051750Y0032763D01*
X0051331Y0031752D01*
X0050558Y0030979D01*
X0050558Y0030979D01*
X0043558Y0023979D01*
X0042547Y0023560D01*
X0025745Y0023560D01*
X0024795Y0022610D01*
X0043700Y0022610D01*
X0048000Y0026910D01*
X0070146Y0026910D01*
X0071054Y0027818D01*
X0072966Y0028610D01*
X0081434Y0028610D01*
X0083346Y0027818D01*
X0084254Y0026910D01*
X0095746Y0026910D01*
X0096654Y0027818D01*
X0098566Y0028610D01*
X0107034Y0028610D01*
X0108946Y0027818D01*
X0109854Y0026910D01*
X0155700Y0026910D01*
X0160100Y0022510D01*
X0160100Y0018892D01*
X0160119Y0018846D01*
X0160296Y0019193D01*
X0160805Y0019893D01*
X0161417Y0020505D01*
X0162117Y0021014D01*
X0162889Y0021407D01*
X0163712Y0021674D01*
X0164567Y0021810D01*
X0164800Y0021810D01*
X0164800Y0016510D01*
X0165200Y0016510D01*
X0165200Y0021810D01*
X0165433Y0021810D01*
X0166288Y0021674D01*
X0167111Y0021407D01*
X0167883Y0021014D01*
X0168583Y0020505D01*
X0169195Y0019893D01*
X0169704Y0019193D01*
X0170000Y0018612D01*
X0170296Y0019193D01*
X0170805Y0019893D01*
X0171417Y0020505D01*
X0172117Y0021014D01*
X0172889Y0021407D01*
X0173712Y0021674D01*
X0174567Y0021810D01*
X0174800Y0021810D01*
X0174800Y0016510D01*
X0175200Y0016510D01*
X0175200Y0021810D01*
X0175433Y0021810D01*
X0176288Y0021674D01*
X0177111Y0021407D01*
X0177883Y0021014D01*
X0178583Y0020505D01*
X0179195Y0019893D01*
X0179704Y0019193D01*
X0179832Y0018942D01*
X0179983Y0019093D01*
X0180168Y0019539D01*
X0181771Y0021142D01*
X0182217Y0021327D01*
X0184800Y0023910D01*
X0381661Y0023910D01*
X0383349Y0024609D01*
X0386651Y0024609D01*
X0388311Y0023921D01*
X0392600Y0028210D01*
X0392600Y0037610D01*
X0388600Y0041610D01*
X0388361Y0041610D01*
X0387805Y0041054D01*
X0387883Y0041014D01*
X0388583Y0040505D01*
X0389195Y0039893D01*
X0389704Y0039193D01*
X0390097Y0038421D01*
X0390365Y0037598D01*
X0390500Y0036743D01*
X0390500Y0036510D01*
X0385200Y0036510D01*
X0385200Y0036110D01*
X0390500Y0036110D01*
X0390500Y0035877D01*
X0390365Y0035022D01*
X0390097Y0034199D01*
X0389704Y0033427D01*
X0389195Y0032727D01*
X0388583Y0032115D01*
X0387883Y0031606D01*
X0387111Y0031213D01*
X0386288Y0030945D01*
X0385433Y0030810D01*
X0385200Y0030810D01*
X0385200Y0036110D01*
X0384800Y0036110D01*
X0379500Y0036110D01*
X0375200Y0036110D01*
X0375200Y0036510D01*
X0384800Y0036510D01*
X0384800Y0036110D01*
X0384800Y0030810D01*
X0384567Y0030810D01*
X0383712Y0030945D01*
X0382889Y0031213D01*
X0382117Y0031606D01*
X0381417Y0032115D01*
X0380805Y0032727D01*
X0380296Y0033427D01*
X0380000Y0034008D01*
X0379704Y0033427D01*
X0379195Y0032727D01*
X0378583Y0032115D01*
X0377883Y0031606D01*
X0377111Y0031213D01*
X0376288Y0030945D01*
X0375433Y0030810D01*
X0375200Y0030810D01*
X0375200Y0036110D01*
X0374800Y0036110D01*
X0369500Y0036110D01*
X0369500Y0035877D01*
X0369635Y0035022D01*
X0369903Y0034199D01*
X0370296Y0033427D01*
X0370805Y0032727D01*
X0371417Y0032115D01*
X0372117Y0031606D01*
X0372889Y0031213D01*
X0373712Y0030945D01*
X0374567Y0030810D01*
X0374800Y0030810D01*
X0374800Y0036110D01*
X0374800Y0036510D01*
X0369500Y0036510D01*
X0369500Y0036743D01*
X0369635Y0037598D01*
X0369903Y0038421D01*
X0370296Y0039193D01*
X0370805Y0039893D01*
X0371417Y0040505D01*
X0372117Y0041014D01*
X0372195Y0041054D01*
X0371639Y0041610D01*
X0356000Y0041610D01*
X0349600Y0048010D01*
X0349600Y0048750D01*
X0348626Y0049724D01*
X0348200Y0050753D01*
X0348200Y0070869D01*
X0342633Y0074846D01*
X0342414Y0074936D01*
X0342184Y0075166D01*
X0341919Y0075355D01*
X0341823Y0075510D01*
X0283155Y0075510D01*
X0282756Y0075466D01*
X0282602Y0075510D01*
X0282443Y0075510D01*
X0282072Y0075664D01*
X0281686Y0075776D01*
X0281561Y0075875D01*
X0281414Y0075936D01*
X0281130Y0076220D01*
X0276561Y0079875D01*
X0276414Y0079936D01*
X0276130Y0080220D01*
X0275816Y0080471D01*
X0275739Y0080611D01*
X0275626Y0080724D01*
X0275472Y0081095D01*
X0275279Y0081447D01*
X0275261Y0081606D01*
X0275200Y0081753D01*
X0275200Y0082155D01*
X0275156Y0082554D01*
X0275200Y0082707D01*
X0275200Y0090111D01*
X0275149Y0090465D01*
X0275200Y0090663D01*
X0275200Y0090867D01*
X0275337Y0091198D01*
X0275426Y0091544D01*
X0275548Y0091708D01*
X0275626Y0091896D01*
X0275879Y0092149D01*
X0277937Y0094893D01*
X0277778Y0094777D01*
X0277034Y0094398D01*
X0276241Y0094140D01*
X0275417Y0094010D01*
X0275200Y0094010D01*
X0275200Y0099110D01*
X0274800Y0099110D01*
X0274800Y0094010D01*
X0274583Y0094010D01*
X0273759Y0094140D01*
X0272966Y0094398D01*
X0272222Y0094777D01*
X0271547Y0095267D01*
X0270957Y0095857D01*
X0270467Y0096532D01*
X0270101Y0097252D01*
X0269663Y0096194D01*
X0268115Y0094647D01*
X0266094Y0093810D01*
X0263906Y0093810D01*
X0261884Y0094647D01*
X0260337Y0096194D01*
X0260000Y0097009D01*
X0259663Y0096194D01*
X0258115Y0094647D01*
X0256094Y0093810D01*
X0253906Y0093810D01*
X0251884Y0094647D01*
X0250337Y0096194D01*
X0249500Y0098216D01*
X0249500Y0100404D01*
X0250337Y0102425D01*
X0251884Y0103973D01*
X0252250Y0104124D01*
X0252250Y0122642D01*
X0252821Y0124020D01*
X0252821Y0124020D01*
X0253348Y0124547D01*
X0253348Y0124547D01*
X0253735Y0124934D01*
X0253735Y0124934D01*
X0255076Y0126275D01*
X0254626Y0126724D01*
X0254200Y0127753D01*
X0254200Y0153867D01*
X0254626Y0154896D01*
X0255414Y0155684D01*
X0256443Y0156110D01*
X0340600Y0156110D01*
X0342548Y0158708D01*
X0342626Y0158896D01*
X0342879Y0159149D01*
X0343094Y0159435D01*
X0343270Y0159539D01*
X0343414Y0159684D01*
X0343745Y0159821D01*
X0344053Y0160003D01*
X0344250Y0160031D01*
X0344250Y0167510D01*
X0344012Y0167510D01*
X0341200Y0170322D01*
X0341200Y0174298D01*
X0343250Y0176348D01*
X0343250Y0181171D01*
X0341861Y0182560D01*
X0330200Y0182560D01*
X0330200Y0181282D01*
X0329028Y0180110D01*
X0320972Y0180110D01*
X0319800Y0181282D01*
X0319800Y0182526D01*
X0319663Y0182194D01*
X0318115Y0180647D01*
X0316094Y0179810D01*
X0313906Y0179810D01*
X0311884Y0180647D01*
X0310337Y0182194D01*
X0309899Y0183252D01*
X0309533Y0182532D01*
X0309043Y0181857D01*
X0308453Y0181267D01*
X0307778Y0180777D01*
X0307034Y0180398D01*
X0306241Y0180140D01*
X0305417Y0180010D01*
X0305200Y0180010D01*
X0305200Y0185110D01*
X0304800Y0185110D01*
X0304800Y0180010D01*
X0304583Y0180010D01*
X0303759Y0180140D01*
X0302966Y0180398D01*
X0302600Y0180584D01*
X0302600Y0168698D01*
X0305012Y0171110D01*
X0308988Y0171110D01*
X0311800Y0168298D01*
X0311800Y0164322D01*
X0308988Y0161510D01*
X0305012Y0161510D01*
X0304291Y0162230D01*
X0303711Y0160830D01*
X0302480Y0159598D01*
X0300871Y0158932D01*
X0299129Y0158932D01*
X0297520Y0159598D01*
X0296289Y0160830D01*
X0295622Y0162439D01*
X0295622Y0163799D01*
X0293800Y0165621D01*
X0293800Y0164322D01*
X0290988Y0161510D01*
X0287012Y0161510D01*
X0284200Y0164322D01*
X0284200Y0168298D01*
X0287012Y0171110D01*
X0288311Y0171110D01*
X0282669Y0176752D01*
X0282250Y0177763D01*
X0282250Y0180496D01*
X0281884Y0180647D01*
X0280337Y0182194D01*
X0280000Y0183009D01*
X0279663Y0182194D01*
X0278115Y0180647D01*
X0276094Y0179810D01*
X0273906Y0179810D01*
X0271884Y0180647D01*
X0270337Y0182194D01*
X0269500Y0184216D01*
X0269500Y0186404D01*
X0270337Y0188425D01*
X0271884Y0189973D01*
X0273906Y0190810D01*
X0276094Y0190810D01*
X0278115Y0189973D01*
X0279663Y0188425D01*
X0280000Y0187611D01*
X0280337Y0188425D01*
X0281884Y0189973D01*
X0283906Y0190810D01*
X0286094Y0190810D01*
X0288115Y0189973D01*
X0289663Y0188425D01*
X0290000Y0187611D01*
X0290337Y0188425D01*
X0291884Y0189973D01*
X0292250Y0190124D01*
X0292250Y0190642D01*
X0292821Y0192020D01*
X0292821Y0192020D01*
X0293057Y0192256D01*
X0293121Y0192376D01*
X0293441Y0192641D01*
X0293735Y0192934D01*
X0293860Y0192986D01*
X0298194Y0196560D01*
X0267184Y0196560D01*
X0266870Y0196291D01*
X0266558Y0195979D01*
X0266457Y0195937D01*
X0259870Y0190291D01*
X0256331Y0186752D01*
X0255558Y0185979D01*
X0254547Y0185560D01*
X0249941Y0185560D01*
X0250711Y0184790D01*
X0251378Y0183181D01*
X0251378Y0181439D01*
X0250711Y0179830D01*
X0249750Y0178869D01*
X0249750Y0174763D01*
X0249331Y0173752D01*
X0245331Y0169752D01*
X0244558Y0168979D01*
X0243547Y0168560D01*
X0239604Y0168560D01*
X0237354Y0166310D01*
X0240200Y0163464D01*
X0240200Y0159156D01*
X0237212Y0156169D01*
X0240000Y0153381D01*
X0240000Y0151510D01*
X0235200Y0151510D01*
X0235200Y0151110D01*
X0240000Y0151110D01*
X0240000Y0149239D01*
X0237212Y0146451D01*
X0240200Y0143464D01*
X0240200Y0139156D01*
X0237354Y0136310D01*
X0240200Y0133464D01*
X0240200Y0129156D01*
X0237154Y0126110D01*
X0232846Y0126110D01*
X0229800Y0129156D01*
X0229800Y0133464D01*
X0232646Y0136310D01*
X0229800Y0139156D01*
X0229800Y0143464D01*
X0232788Y0146451D01*
X0230000Y0149239D01*
X0230000Y0151110D01*
X0234800Y0151110D01*
X0234800Y0151510D01*
X0230000Y0151510D01*
X0230000Y0153381D01*
X0232788Y0156169D01*
X0231048Y0157908D01*
X0225120Y0151981D01*
X0225120Y0120509D01*
X0238331Y0107298D01*
X0238750Y0106287D01*
X0238750Y0097348D01*
X0240800Y0095298D01*
X0240800Y0091322D01*
X0237988Y0088510D01*
X0235160Y0088510D01*
X0231800Y0085150D01*
X0231800Y0076753D01*
X0231750Y0076632D01*
X0231750Y0072565D01*
X0234095Y0074910D01*
X0236000Y0074910D01*
X0236000Y0070310D01*
X0236000Y0070310D01*
X0236000Y0074910D01*
X0237905Y0074910D01*
X0240600Y0072215D01*
X0240600Y0070310D01*
X0236000Y0070310D01*
X0236000Y0070310D01*
X0240600Y0070310D01*
X0240600Y0068405D01*
X0237905Y0065710D01*
X0236000Y0065710D01*
X0236000Y0070310D01*
X0236000Y0070310D01*
X0236000Y0065710D01*
X0234095Y0065710D01*
X0231750Y0068055D01*
X0231750Y0062848D01*
X0234012Y0065110D01*
X0237988Y0065110D01*
X0240800Y0062298D01*
X0240800Y0058322D01*
X0238800Y0056322D01*
X0238800Y0049470D01*
X0243590Y0044679D01*
X0243906Y0044810D01*
X0246094Y0044810D01*
X0248115Y0043973D01*
X0249663Y0042425D01*
X0250000Y0041611D01*
X0250337Y0042425D01*
X0251884Y0043973D01*
X0253906Y0044810D01*
X0256094Y0044810D01*
X0258115Y0043973D01*
X0258200Y0043888D01*
X0258200Y0056322D01*
X0256200Y0058322D01*
X0256200Y0062298D01*
X0259012Y0065110D01*
X0262988Y0065110D01*
X0265800Y0062298D01*
X0265800Y0058322D01*
X0263800Y0056322D01*
X0263800Y0044766D01*
X0263906Y0044810D01*
X0266094Y0044810D01*
X0268115Y0043973D01*
X0269663Y0042425D01*
X0270000Y0041611D01*
X0270337Y0042425D01*
X0271884Y0043973D01*
X0273906Y0044810D01*
X0276094Y0044810D01*
X0278115Y0043973D01*
X0279663Y0042425D01*
X0280000Y0041611D01*
X0280337Y0042425D01*
X0281884Y0043973D01*
X0283200Y0044518D01*
X0283200Y0056322D01*
X0281200Y0058322D01*
X0281200Y0062298D01*
X0284012Y0065110D01*
X0287988Y0065110D01*
X0290800Y0062298D01*
X0290800Y0058322D01*
X0288800Y0056322D01*
X0288800Y0043288D01*
X0289663Y0042425D01*
X0290000Y0041611D01*
X0290337Y0042425D01*
X0291884Y0043973D01*
X0293906Y0044810D01*
X0296094Y0044810D01*
X0298115Y0043973D01*
X0299663Y0042425D01*
X0300000Y0041611D01*
X0300337Y0042425D01*
X0301884Y0043973D01*
X0303906Y0044810D01*
X0306094Y0044810D01*
X0306410Y0044679D01*
X0308200Y0046470D01*
X0308200Y0056322D01*
X0306200Y0058322D01*
X0306200Y0062298D01*
X0309012Y0065110D01*
X0312988Y0065110D01*
X0315800Y0062298D01*
X0315800Y0058322D01*
X0313800Y0056322D01*
X0313800Y0044766D01*
X0313906Y0044810D01*
X0316094Y0044810D01*
X0318115Y0043973D01*
X0319663Y0042425D01*
X0320000Y0041611D01*
X0320337Y0042425D01*
X0321884Y0043973D01*
X0323906Y0044810D01*
X0326094Y0044810D01*
X0326410Y0044679D01*
X0333200Y0051470D01*
X0333200Y0056322D01*
X0331200Y0058322D01*
X0331200Y0062298D01*
X0334012Y0065110D01*
X0337988Y0065110D01*
X0340800Y0062298D01*
X0340800Y0058322D01*
X0338800Y0056322D01*
X0338800Y0049753D01*
X0338374Y0048724D01*
X0334460Y0044810D01*
X0336094Y0044810D01*
X0338115Y0043973D01*
X0339500Y0042588D01*
X0339500Y0043638D01*
X0340672Y0044810D01*
X0349328Y0044810D01*
X0350500Y0043638D01*
X0350500Y0034982D01*
X0349328Y0033810D01*
X0340672Y0033810D01*
X0339500Y0034982D01*
X0339500Y0036032D01*
X0338115Y0034647D01*
X0336094Y0033810D01*
X0333906Y0033810D01*
X0331884Y0034647D01*
X0330337Y0036194D01*
X0330000Y0037009D01*
X0329663Y0036194D01*
X0328115Y0034647D01*
X0326094Y0033810D01*
X0323906Y0033810D01*
X0321884Y0034647D01*
X0320337Y0036194D01*
X0320000Y0037009D01*
X0319663Y0036194D01*
X0318115Y0034647D01*
X0316094Y0033810D01*
X0313906Y0033810D01*
X0311884Y0034647D01*
X0310337Y0036194D01*
X0310000Y0037009D01*
X0309663Y0036194D01*
X0308115Y0034647D01*
X0306094Y0033810D01*
X0303906Y0033810D01*
X0301884Y0034647D01*
X0300337Y0036194D01*
X0300000Y0037009D01*
X0299663Y0036194D01*
X0298115Y0034647D01*
X0296094Y0033810D01*
X0293906Y0033810D01*
X0291884Y0034647D01*
X0290337Y0036194D01*
X0290000Y0037009D01*
X0289663Y0036194D01*
X0288115Y0034647D01*
X0286094Y0033810D01*
X0283906Y0033810D01*
X0281884Y0034647D01*
X0280337Y0036194D01*
X0280000Y0037009D01*
X0279663Y0036194D01*
X0278115Y0034647D01*
X0276094Y0033810D01*
X0273906Y0033810D01*
X0271884Y0034647D01*
X0270337Y0036194D01*
X0270000Y0037009D01*
X0269663Y0036194D01*
X0268115Y0034647D01*
X0266094Y0033810D01*
X0263906Y0033810D01*
X0261884Y0034647D01*
X0260337Y0036194D01*
X0260000Y0037009D01*
X0259663Y0036194D01*
X0258115Y0034647D01*
X0256094Y0033810D01*
X0253906Y0033810D01*
X0251884Y0034647D01*
X0250337Y0036194D01*
X0250000Y0037009D01*
X0249663Y0036194D01*
X0248115Y0034647D01*
X0246094Y0033810D01*
X0243906Y0033810D01*
X0241884Y0034647D01*
X0240337Y0036194D01*
X0240000Y0037009D01*
X0239663Y0036194D01*
X0238115Y0034647D01*
X0236094Y0033810D01*
X0233906Y0033810D01*
X0231884Y0034647D01*
X0230337Y0036194D01*
X0229899Y0037252D01*
X0229533Y0036532D01*
X0229043Y0035857D01*
X0228453Y0035267D01*
X0227778Y0034777D01*
X0227034Y0034398D01*
X0226241Y0034140D01*
X0225417Y0034010D01*
X0225200Y0034010D01*
X0225200Y0039110D01*
X0224800Y0039110D01*
X0219700Y0039110D01*
X0219700Y0038893D01*
X0219830Y0038069D01*
X0220088Y0037275D01*
X0220467Y0036532D01*
X0220957Y0035857D01*
X0221547Y0035267D01*
X0222222Y0034777D01*
X0222966Y0034398D01*
X0223759Y0034140D01*
X0224583Y0034010D01*
X0224800Y0034010D01*
X0224800Y0039110D01*
X0224800Y0039510D01*
X0224800Y0044610D01*
X0224727Y0044610D01*
X0230949Y0050870D01*
X0231331Y0051252D01*
X0231333Y0051256D01*
X0231336Y0051259D01*
X0231542Y0051762D01*
X0231750Y0052263D01*
X0231750Y0052267D01*
X0231752Y0052271D01*
X0231750Y0052815D01*
X0231750Y0057772D01*
X0233200Y0056322D01*
X0233200Y0047753D01*
X0233626Y0046724D01*
X0235540Y0044810D01*
X0233906Y0044810D01*
X0231884Y0043973D01*
X0230337Y0042425D01*
X0229899Y0041368D01*
X0229533Y0042088D01*
X0229043Y0042763D01*
X0228453Y0043353D01*
X0227778Y0043843D01*
X0227034Y0044222D01*
X0226241Y0044479D01*
X0225417Y0044610D01*
X0225200Y0044610D01*
X0225200Y0039510D01*
X0224800Y0039510D01*
X0219700Y0039510D01*
X0219700Y0039552D01*
X0216978Y0036814D01*
X0216978Y0035439D01*
X0216311Y0033830D01*
X0215080Y0032598D01*
X0213471Y0031932D01*
X0211729Y0031932D01*
X0210120Y0032598D01*
X0208889Y0033830D01*
X0208222Y0035439D01*
X0208222Y0037181D01*
X0208889Y0038790D01*
X0210120Y0040021D01*
X0211729Y0040688D01*
X0213074Y0040688D01*
X0226250Y0053944D01*
X0226250Y0076632D01*
X0226200Y0076753D01*
X0226200Y0086867D01*
X0226626Y0087896D01*
X0227414Y0088684D01*
X0227440Y0088710D01*
X0226000Y0088710D01*
X0226000Y0093310D01*
X0226000Y0093310D01*
X0226000Y0097910D01*
X0227905Y0097910D01*
X0230600Y0095215D01*
X0230600Y0093310D01*
X0226000Y0093310D01*
X0226000Y0097910D01*
X0224095Y0097910D01*
X0221400Y0095215D01*
X0221400Y0093310D01*
X0226000Y0093310D01*
X0226000Y0093310D01*
X0226000Y0093310D01*
X0230600Y0093310D01*
X0230600Y0091870D01*
X0231200Y0092470D01*
X0231200Y0095298D01*
X0233250Y0097348D01*
X0233250Y0104601D01*
X0220039Y0117812D01*
X0219620Y0118823D01*
X0219620Y0152867D01*
X0219453Y0152794D01*
X0218962Y0152570D01*
X0218944Y0152570D01*
X0218927Y0152563D01*
X0218388Y0152551D01*
X0217849Y0152533D01*
X0217832Y0152539D01*
X0217813Y0152539D01*
X0217310Y0152734D01*
X0216806Y0152924D01*
X0216792Y0152936D01*
X0216775Y0152943D01*
X0216386Y0153316D01*
X0215992Y0153684D01*
X0215984Y0153701D01*
X0210250Y0159193D01*
X0210250Y0154067D01*
X0209298Y0151770D01*
X0201250Y0143721D01*
X0201250Y0141067D01*
X0200298Y0138770D01*
X0198540Y0137011D01*
X0196243Y0136060D01*
X0193757Y0136060D01*
X0191460Y0137011D01*
X0189702Y0138770D01*
X0188750Y0141067D01*
X0188750Y0148553D01*
X0189702Y0150850D01*
X0191460Y0152608D01*
X0193167Y0153316D01*
X0197750Y0157899D01*
X0197750Y0166411D01*
X0186014Y0176342D01*
X0184875Y0178552D01*
X0184668Y0181030D01*
X0185426Y0183398D01*
X0187032Y0185296D01*
X0187544Y0185560D01*
X0175441Y0185560D01*
X0174480Y0184598D01*
X0172871Y0183932D01*
X0171129Y0183932D01*
X0169520Y0184598D01*
X0168289Y0185830D01*
X0167622Y0187439D01*
X0167622Y0189181D01*
X0168153Y0190463D01*
X0166871Y0189932D01*
X0165129Y0189932D01*
X0163520Y0190598D01*
X0162289Y0191830D01*
X0161622Y0193439D01*
X0161622Y0195181D01*
X0162289Y0196790D01*
X0163520Y0198021D01*
X0165041Y0198651D01*
X0150157Y0198790D01*
X0145600Y0194233D01*
X0145600Y0151387D01*
X0150238Y0146749D01*
X0151894Y0147434D01*
X0154106Y0147434D01*
X0156151Y0146588D01*
X0157715Y0145023D01*
X0158000Y0144336D01*
X0158285Y0145023D01*
X0159849Y0146588D01*
X0161894Y0147434D01*
X0164106Y0147434D01*
X0166151Y0146588D01*
X0167715Y0145023D01*
X0168106Y0144079D01*
X0168414Y0144683D01*
X0168910Y0145365D01*
X0169507Y0145962D01*
X0170190Y0146458D01*
X0170942Y0146841D01*
X0171744Y0147102D01*
X0172578Y0147234D01*
X0172619Y0147234D01*
X0172619Y0138691D01*
X0173381Y0138691D01*
X0173381Y0147234D01*
X0173422Y0147234D01*
X0174256Y0147102D01*
X0175058Y0146841D01*
X0175810Y0146458D01*
X0176493Y0145962D01*
X0177090Y0145365D01*
X0177586Y0144683D01*
X0177969Y0143931D01*
X0178230Y0143128D01*
X0178362Y0142294D01*
X0178362Y0138691D01*
X0173381Y0138691D01*
X0173381Y0137929D01*
X0178362Y0137929D01*
X0178362Y0134326D01*
X0178230Y0133492D01*
X0177969Y0132689D01*
X0177586Y0131937D01*
X0177090Y0131254D01*
X0176493Y0130658D01*
X0175810Y0130162D01*
X0175058Y0129778D01*
X0174256Y0129518D01*
X0173422Y0129386D01*
X0173381Y0129386D01*
X0173381Y0137929D01*
X0172619Y0137929D01*
X0172619Y0129386D01*
X0172578Y0129386D01*
X0171744Y0129518D01*
X0170942Y0129778D01*
X0170190Y0130162D01*
X0169507Y0130658D01*
X0168910Y0131254D01*
X0168414Y0131937D01*
X0168106Y0132541D01*
X0167715Y0131597D01*
X0166151Y0130032D01*
X0164106Y0129186D01*
X0161894Y0129186D01*
X0159849Y0130032D01*
X0158285Y0131597D01*
X0158000Y0132284D01*
X0157715Y0131597D01*
X0156151Y0130032D01*
X0154106Y0129186D01*
X0151894Y0129186D01*
X0149849Y0130032D01*
X0148285Y0131597D01*
X0148000Y0132284D01*
X0147715Y0131597D01*
X0146151Y0130032D01*
X0144106Y0129186D01*
X0141894Y0129186D01*
X0139849Y0130032D01*
X0138285Y0131597D01*
X0138000Y0132284D01*
X0137715Y0131597D01*
X0136151Y0130032D01*
X0134106Y0129186D01*
X0131894Y0129186D01*
X0129849Y0130032D01*
X0128285Y0131597D01*
X0128000Y0132284D01*
X0127715Y0131597D01*
X0126151Y0130032D01*
X0124106Y0129186D01*
X0121894Y0129186D01*
X0119849Y0130032D01*
X0118285Y0131597D01*
X0118000Y0132284D01*
X0117715Y0131597D01*
X0116151Y0130032D01*
X0114106Y0129186D01*
X0111894Y0129186D01*
X0109849Y0130032D01*
X0108285Y0131597D01*
X0107894Y0132541D01*
X0107586Y0131937D01*
X0107090Y0131254D01*
X0106493Y0130658D01*
X0105810Y0130162D01*
X0105058Y0129778D01*
X0104256Y0129518D01*
X0103422Y0129386D01*
X0103381Y0129386D01*
X0103381Y0137929D01*
X0102619Y0137929D01*
X0097638Y0137929D01*
X0097638Y0134326D01*
X0097770Y0133492D01*
X0098031Y0132689D01*
X0098414Y0131937D01*
X0098910Y0131254D01*
X0099507Y0130658D01*
X0100190Y0130162D01*
X0100942Y0129778D01*
X0101744Y0129518D01*
X0102578Y0129386D01*
X0102619Y0129386D01*
X0102619Y0137929D01*
X0102619Y0138691D01*
X0097638Y0138691D01*
X0097638Y0142294D01*
X0097770Y0143128D01*
X0098031Y0143931D01*
X0098414Y0144683D01*
X0098910Y0145365D01*
X0099507Y0145962D01*
X0100190Y0146458D01*
X0100942Y0146841D01*
X0101461Y0147010D01*
X0099702Y0148770D01*
X0098750Y0151067D01*
X0098750Y0153553D01*
X0099702Y0155850D01*
X0101460Y0157608D01*
X0103757Y0158560D01*
X0106243Y0158560D01*
X0108540Y0157608D01*
X0118298Y0147850D01*
X0119123Y0145861D01*
X0119849Y0146588D01*
X0121894Y0147434D01*
X0124106Y0147434D01*
X0126151Y0146588D01*
X0127715Y0145023D01*
X0128000Y0144336D01*
X0128285Y0145023D01*
X0129849Y0146588D01*
X0131894Y0147434D01*
X0134106Y0147434D01*
X0136151Y0146588D01*
X0136400Y0146338D01*
X0136400Y0198919D01*
X0115900Y0199110D01*
X0115418Y0201830D01*
X0114168Y0203081D01*
X0113881Y0203774D01*
X0113704Y0203427D01*
X0113195Y0202727D01*
X0112583Y0202115D01*
X0111883Y0201606D01*
X0111111Y0201213D01*
X0110288Y0200945D01*
X0109433Y0200810D01*
X0109200Y0200810D01*
X0109200Y0206110D01*
X0108800Y0206110D01*
X0108800Y0200810D01*
X0108567Y0200810D01*
X0107712Y0200945D01*
X0106889Y0201213D01*
X0106117Y0201606D01*
X0105417Y0202115D01*
X0104805Y0202727D01*
X0104296Y0203427D01*
X0104119Y0203774D01*
X0103832Y0203081D01*
X0102229Y0201478D01*
X0100134Y0200610D01*
X0097866Y0200610D01*
X0095771Y0201478D01*
X0094168Y0203081D01*
X0094000Y0203486D01*
X0093832Y0203081D01*
X0092229Y0201478D01*
X0090134Y0200610D01*
X0087866Y0200610D01*
X0085771Y0201478D01*
X0084168Y0203081D01*
X0084000Y0203486D01*
X0083832Y0203081D01*
X0082229Y0201478D01*
X0080134Y0200610D01*
X0077866Y0200610D01*
X0075771Y0201478D01*
X0074168Y0203081D01*
X0073300Y0205176D01*
X0073300Y0207444D01*
X0074168Y0209539D01*
X0075771Y0211142D01*
X0077866Y0212010D01*
X0080134Y0212010D01*
X0082229Y0211142D01*
X0083832Y0209539D01*
X0084000Y0209134D01*
X0084168Y0209539D01*
X0085771Y0211142D01*
X0087866Y0212010D01*
X0090134Y0212010D01*
X0092229Y0211142D01*
X0093832Y0209539D01*
X0094000Y0209134D01*
X0094168Y0209539D01*
X0095771Y0211142D01*
X0097866Y0212010D01*
X0100134Y0212010D01*
X0102229Y0211142D01*
X0103832Y0209539D01*
X0104119Y0208846D01*
X0104296Y0209193D01*
X0104805Y0209893D01*
X0105417Y0210505D01*
X0106117Y0211014D01*
X0106889Y0211407D01*
X0107712Y0211674D01*
X0108567Y0211810D01*
X0108800Y0211810D01*
X0108800Y0206510D01*
X0109200Y0206510D01*
X0109200Y0211810D01*
X0109433Y0211810D01*
X0110288Y0211674D01*
X0111111Y0211407D01*
X0111883Y0211014D01*
X0112583Y0210505D01*
X0113195Y0209893D01*
X0113704Y0209193D01*
X0113881Y0208846D01*
X0114088Y0209347D01*
X0113900Y0210410D01*
X0111700Y0213210D01*
X0075900Y0213210D01*
X0072507Y0209873D01*
X0073299Y0207961D01*
X0073299Y0204659D01*
X0072036Y0201609D01*
X0069701Y0199274D01*
X0066651Y0198011D01*
X0063349Y0198011D01*
X0061308Y0198856D01*
X0008400Y0146810D01*
X0007800Y0146210D01*
X0007700Y0146010D01*
X0008100Y0030210D01*
X0015600Y0022610D01*
X0017205Y0022610D01*
X0015700Y0024115D01*
X0015700Y0028505D01*
X0018646Y0031451D01*
X0015900Y0034197D01*
X0015900Y0036110D01*
X0020800Y0036110D01*
X0020800Y0036510D01*
X0015900Y0036510D01*
X0015900Y0038422D01*
X0018092Y0040614D01*
X0017389Y0040905D01*
X0015596Y0042699D01*
X0014625Y0045042D01*
X0014625Y0056805D01*
X0013761Y0058534D01*
X0013596Y0058699D01*
X0013197Y0059661D01*
X0012731Y0060593D01*
X0012714Y0060826D01*
X0012625Y0061042D01*
X0012625Y0062084D01*
X0012551Y0063123D01*
X0012625Y0063344D01*
X0012625Y0064578D01*
X0013596Y0066921D01*
X0015389Y0068714D01*
X0016592Y0069213D01*
X0014400Y0071405D01*
X0014400Y0073310D01*
X0019000Y0073310D01*
X0019000Y0073310D01*
X0019000Y0077910D01*
X0020905Y0077910D01*
X0023600Y0075215D01*
X0023600Y0073310D01*
X0019000Y0073310D01*
X0019000Y0077910D01*
X0017095Y0077910D01*
X0014400Y0075215D01*
X0014400Y0073310D01*
X0019000Y0073310D01*
X0019000Y0073310D01*
X0019000Y0073310D01*
X0023600Y0073310D01*
X0023600Y0071405D01*
X0021408Y0069213D01*
X0022611Y0068714D01*
X0024404Y0066921D01*
X0024749Y0066090D01*
X0027629Y0066954D01*
X0028389Y0067714D01*
X0028691Y0067839D01*
X0029026Y0068174D01*
X0029026Y0092372D01*
X0028574Y0092824D01*
X0028868Y0092530D02*
X0023179Y0092530D01*
X0023474Y0092824D02*
X0024677Y0095730D01*
X0024677Y0098875D01*
X0023474Y0101780D01*
X0023250Y0102004D01*
X0023250Y0114721D01*
X0025593Y0117064D01*
X0027569Y0117882D01*
X0029341Y0119655D01*
X0030300Y0121970D01*
X0030300Y0124476D01*
X0029341Y0126792D01*
X0027569Y0128564D01*
X0025253Y0129523D01*
X0022747Y0129523D01*
X0022626Y0129473D01*
X0021670Y0129473D01*
X0019373Y0128522D01*
X0013460Y0122608D01*
X0011702Y0120850D01*
X0010750Y0118553D01*
X0010750Y0102460D01*
X0010070Y0101780D01*
X0008866Y0098875D01*
X0008866Y0095730D01*
X0010070Y0092824D01*
X0012294Y0090600D01*
X0015199Y0089397D01*
X0018344Y0089397D01*
X0021250Y0090600D01*
X0023474Y0092824D01*
X0021581Y0090931D02*
X0029026Y0090931D01*
X0029026Y0089333D02*
X0007896Y0089333D01*
X0007890Y0090931D02*
X0011963Y0090931D01*
X0010364Y0092530D02*
X0007885Y0092530D01*
X0007879Y0094128D02*
X0009529Y0094128D01*
X0008867Y0095727D02*
X0007874Y0095727D01*
X0007868Y0097325D02*
X0008866Y0097325D01*
X0008886Y0098924D02*
X0007863Y0098924D01*
X0007857Y0100522D02*
X0009549Y0100522D01*
X0010410Y0102121D02*
X0007852Y0102121D01*
X0007846Y0103719D02*
X0010750Y0103719D01*
X0010750Y0105318D02*
X0007841Y0105318D01*
X0007835Y0106916D02*
X0010750Y0106916D01*
X0010750Y0108515D02*
X0007830Y0108515D01*
X0007824Y0110113D02*
X0010750Y0110113D01*
X0010750Y0111712D02*
X0007818Y0111712D01*
X0007813Y0113310D02*
X0010750Y0113310D01*
X0010750Y0114909D02*
X0007807Y0114909D01*
X0007802Y0116507D02*
X0010750Y0116507D01*
X0010750Y0118106D02*
X0007796Y0118106D01*
X0007791Y0119704D02*
X0011227Y0119704D01*
X0012154Y0121303D02*
X0007785Y0121303D01*
X0007780Y0122901D02*
X0013752Y0122901D01*
X0015351Y0124500D02*
X0007774Y0124500D01*
X0007769Y0126098D02*
X0016950Y0126098D01*
X0018548Y0127697D02*
X0007763Y0127697D01*
X0007758Y0129295D02*
X0021240Y0129295D01*
X0021658Y0131350D02*
X0022572Y0131053D01*
X0023520Y0130903D01*
X0023816Y0130903D01*
X0023816Y0136819D01*
X0017900Y0136819D01*
X0017900Y0136523D01*
X0018050Y0135574D01*
X0018347Y0134661D01*
X0018783Y0133806D01*
X0019347Y0133029D01*
X0020026Y0132350D01*
X0020803Y0131786D01*
X0021658Y0131350D01*
X0019884Y0132492D02*
X0007747Y0132492D01*
X0007752Y0130894D02*
X0046800Y0130894D01*
X0046800Y0132492D02*
X0028116Y0132492D01*
X0027974Y0132350D02*
X0028653Y0133029D01*
X0029217Y0133806D01*
X0029653Y0134661D01*
X0029950Y0135574D01*
X0030100Y0136523D01*
X0030100Y0136819D01*
X0024184Y0136819D01*
X0024184Y0137187D01*
X0023816Y0137187D01*
X0023816Y0143103D01*
X0023520Y0143103D01*
X0022572Y0142953D01*
X0021658Y0142656D01*
X0020803Y0142220D01*
X0020026Y0141656D01*
X0019347Y0140977D01*
X0018783Y0140200D01*
X0018347Y0139344D01*
X0018050Y0138431D01*
X0017900Y0137483D01*
X0017900Y0137187D01*
X0023816Y0137187D01*
X0023816Y0136819D01*
X0024184Y0136819D01*
X0024184Y0130903D01*
X0024480Y0130903D01*
X0025428Y0131053D01*
X0026342Y0131350D01*
X0027197Y0131786D01*
X0027974Y0132350D01*
X0029362Y0134091D02*
X0047427Y0134091D01*
X0048237Y0135689D02*
X0029968Y0135689D01*
X0030100Y0137187D02*
X0030100Y0137483D01*
X0029950Y0138431D01*
X0029653Y0139344D01*
X0029217Y0140200D01*
X0028653Y0140977D01*
X0027974Y0141656D01*
X0027197Y0142220D01*
X0026342Y0142656D01*
X0025428Y0142953D01*
X0024480Y0143103D01*
X0024184Y0143103D01*
X0024184Y0137187D01*
X0030100Y0137187D01*
X0030100Y0137288D02*
X0046183Y0137288D01*
X0045239Y0138886D02*
X0029802Y0138886D01*
X0029010Y0140485D02*
X0044750Y0140485D01*
X0044750Y0142083D02*
X0027385Y0142083D01*
X0026905Y0143710D02*
X0029600Y0146405D01*
X0029600Y0148310D01*
X0029600Y0150215D01*
X0026905Y0152910D01*
X0025000Y0152910D01*
X0025000Y0148310D01*
X0025000Y0148310D01*
X0025000Y0152910D01*
X0023095Y0152910D01*
X0020400Y0150215D01*
X0020400Y0148310D01*
X0025000Y0148310D01*
X0029600Y0148310D01*
X0025000Y0148310D01*
X0025000Y0148310D01*
X0025000Y0148310D01*
X0020400Y0148310D01*
X0020400Y0146405D01*
X0023095Y0143710D01*
X0025000Y0143710D01*
X0026905Y0143710D01*
X0025000Y0143710D02*
X0025000Y0148310D01*
X0025000Y0148310D01*
X0025000Y0143710D01*
X0025000Y0145280D02*
X0025000Y0145280D01*
X0025000Y0146879D02*
X0025000Y0146879D01*
X0025000Y0148477D02*
X0025000Y0148477D01*
X0025000Y0150076D02*
X0025000Y0150076D01*
X0025000Y0151674D02*
X0025000Y0151674D01*
X0028141Y0151674D02*
X0047000Y0151674D01*
X0047000Y0150076D02*
X0029600Y0150076D01*
X0029600Y0148477D02*
X0047761Y0148477D01*
X0048113Y0146879D02*
X0029600Y0146879D01*
X0028476Y0145280D02*
X0046132Y0145280D01*
X0045218Y0143682D02*
X0007708Y0143682D01*
X0007703Y0145280D02*
X0021524Y0145280D01*
X0020400Y0146879D02*
X0008470Y0146879D01*
X0010095Y0148477D02*
X0020400Y0148477D01*
X0020400Y0150076D02*
X0011720Y0150076D01*
X0013345Y0151674D02*
X0021859Y0151674D01*
X0018220Y0156470D02*
X0049486Y0156470D01*
X0048491Y0154871D02*
X0016595Y0154871D01*
X0014970Y0153273D02*
X0047000Y0153273D01*
X0047888Y0158069D02*
X0019845Y0158069D01*
X0021470Y0159667D02*
X0046800Y0159667D01*
X0046800Y0161266D02*
X0023095Y0161266D01*
X0024720Y0162864D02*
X0046800Y0162864D01*
X0047799Y0164463D02*
X0026345Y0164463D01*
X0027970Y0166061D02*
X0049397Y0166061D01*
X0048296Y0167660D02*
X0029595Y0167660D01*
X0031220Y0169258D02*
X0046800Y0169258D01*
X0046800Y0170857D02*
X0032845Y0170857D01*
X0034470Y0172455D02*
X0046800Y0172455D01*
X0047390Y0174054D02*
X0036095Y0174054D01*
X0037720Y0175652D02*
X0048988Y0175652D01*
X0048705Y0177251D02*
X0039345Y0177251D01*
X0040970Y0178849D02*
X0047107Y0178849D01*
X0046800Y0180448D02*
X0042595Y0180448D01*
X0044220Y0182046D02*
X0046800Y0182046D01*
X0046981Y0183645D02*
X0045845Y0183645D01*
X0047470Y0185243D02*
X0048579Y0185243D01*
X0049095Y0186842D02*
X0136400Y0186842D01*
X0136400Y0188440D02*
X0050720Y0188440D01*
X0052345Y0190039D02*
X0136400Y0190039D01*
X0136400Y0191637D02*
X0053970Y0191637D01*
X0055595Y0193236D02*
X0136400Y0193236D01*
X0136400Y0194834D02*
X0057220Y0194834D01*
X0058845Y0196433D02*
X0136400Y0196433D01*
X0136400Y0198031D02*
X0066700Y0198031D01*
X0063300Y0198031D02*
X0060470Y0198031D01*
X0070057Y0199630D02*
X0115808Y0199630D01*
X0115525Y0201228D02*
X0111142Y0201228D01*
X0109200Y0201228D02*
X0108800Y0201228D01*
X0108800Y0202827D02*
X0109200Y0202827D01*
X0109200Y0204425D02*
X0108800Y0204425D01*
X0108800Y0206024D02*
X0109200Y0206024D01*
X0109200Y0207622D02*
X0108800Y0207622D01*
X0108800Y0209221D02*
X0109200Y0209221D01*
X0109200Y0210819D02*
X0108800Y0210819D01*
X0105850Y0210819D02*
X0102552Y0210819D01*
X0103964Y0209221D02*
X0104317Y0209221D01*
X0112150Y0210819D02*
X0113578Y0210819D01*
X0113683Y0209221D02*
X0114036Y0209221D01*
X0112322Y0212418D02*
X0075095Y0212418D01*
X0075448Y0210819D02*
X0073470Y0210819D01*
X0074036Y0209221D02*
X0072777Y0209221D01*
X0073299Y0207622D02*
X0073374Y0207622D01*
X0073299Y0206024D02*
X0073300Y0206024D01*
X0073202Y0204425D02*
X0073611Y0204425D01*
X0074422Y0202827D02*
X0072540Y0202827D01*
X0071655Y0201228D02*
X0076373Y0201228D01*
X0081627Y0201228D02*
X0086373Y0201228D01*
X0084422Y0202827D02*
X0083578Y0202827D01*
X0091627Y0201228D02*
X0096373Y0201228D01*
X0094422Y0202827D02*
X0093578Y0202827D01*
X0101627Y0201228D02*
X0106858Y0201228D01*
X0104732Y0202827D02*
X0103578Y0202827D01*
X0113268Y0202827D02*
X0114422Y0202827D01*
X0095448Y0210819D02*
X0092552Y0210819D01*
X0093964Y0209221D02*
X0094036Y0209221D01*
X0085448Y0210819D02*
X0082552Y0210819D01*
X0083964Y0209221D02*
X0084036Y0209221D01*
X0090906Y0185243D02*
X0125356Y0185243D01*
X0125004Y0185129D02*
X0125782Y0185382D01*
X0126591Y0185510D01*
X0126700Y0185510D01*
X0126700Y0180610D01*
X0127300Y0180610D01*
X0127300Y0185510D01*
X0127409Y0185510D01*
X0128218Y0185382D01*
X0128996Y0185129D01*
X0129725Y0184757D01*
X0130388Y0184276D01*
X0130966Y0183698D01*
X0131447Y0183035D01*
X0131819Y0182306D01*
X0132072Y0181528D01*
X0132200Y0180719D01*
X0132200Y0180610D01*
X0127300Y0180610D01*
X0127300Y0180010D01*
X0132200Y0180010D01*
X0132200Y0179901D01*
X0132072Y0179092D01*
X0131819Y0178314D01*
X0131447Y0177585D01*
X0130966Y0176922D01*
X0130388Y0176344D01*
X0129725Y0175862D01*
X0128996Y0175491D01*
X0128218Y0175238D01*
X0127409Y0175110D01*
X0127300Y0175110D01*
X0127300Y0180010D01*
X0126700Y0180010D01*
X0121800Y0180010D01*
X0121800Y0179901D01*
X0121928Y0179092D01*
X0122181Y0178314D01*
X0122553Y0177585D01*
X0123034Y0176922D01*
X0123612Y0176344D01*
X0124275Y0175862D01*
X0125004Y0175491D01*
X0125782Y0175238D01*
X0126591Y0175110D01*
X0126700Y0175110D01*
X0126700Y0180010D01*
X0126700Y0180610D01*
X0121800Y0180610D01*
X0121800Y0180719D01*
X0121928Y0181528D01*
X0122181Y0182306D01*
X0122553Y0183035D01*
X0123034Y0183698D01*
X0123612Y0184276D01*
X0124275Y0184757D01*
X0125004Y0185129D01*
X0126700Y0185243D02*
X0127300Y0185243D01*
X0128644Y0185243D02*
X0136400Y0185243D01*
X0136400Y0183645D02*
X0131005Y0183645D01*
X0131903Y0182046D02*
X0136400Y0182046D01*
X0136400Y0180448D02*
X0127300Y0180448D01*
X0126700Y0180448D02*
X0093250Y0180448D01*
X0093160Y0178849D02*
X0122007Y0178849D01*
X0122795Y0177251D02*
X0092498Y0177251D01*
X0091181Y0175652D02*
X0124687Y0175652D01*
X0126700Y0175652D02*
X0127300Y0175652D01*
X0127300Y0177251D02*
X0126700Y0177251D01*
X0126700Y0178849D02*
X0127300Y0178849D01*
X0127300Y0182046D02*
X0126700Y0182046D01*
X0126700Y0183645D02*
X0127300Y0183645D01*
X0122995Y0183645D02*
X0092384Y0183645D01*
X0093046Y0182046D02*
X0122097Y0182046D01*
X0131205Y0177251D02*
X0136400Y0177251D01*
X0136400Y0178849D02*
X0131993Y0178849D01*
X0129313Y0175652D02*
X0136400Y0175652D01*
X0136400Y0174054D02*
X0079583Y0174054D01*
X0077984Y0172455D02*
X0136400Y0172455D01*
X0136400Y0170857D02*
X0077250Y0170857D01*
X0077250Y0169258D02*
X0136400Y0169258D01*
X0136400Y0167660D02*
X0129860Y0167660D01*
X0129725Y0167757D02*
X0128996Y0168129D01*
X0128218Y0168382D01*
X0127409Y0168510D01*
X0127300Y0168510D01*
X0127300Y0163610D01*
X0126700Y0163610D01*
X0126700Y0168510D01*
X0126591Y0168510D01*
X0125782Y0168382D01*
X0125004Y0168129D01*
X0124275Y0167757D01*
X0123612Y0167276D01*
X0123034Y0166698D01*
X0122553Y0166035D01*
X0122181Y0165306D01*
X0121928Y0164528D01*
X0121800Y0163719D01*
X0121800Y0163610D01*
X0126700Y0163610D01*
X0126700Y0163010D01*
X0121800Y0163010D01*
X0121800Y0162901D01*
X0121928Y0162092D01*
X0122181Y0161314D01*
X0122553Y0160585D01*
X0123034Y0159922D01*
X0123612Y0159344D01*
X0124275Y0158863D01*
X0125004Y0158491D01*
X0125782Y0158238D01*
X0126591Y0158110D01*
X0126700Y0158110D01*
X0126700Y0163010D01*
X0127300Y0163010D01*
X0127300Y0163610D01*
X0132200Y0163610D01*
X0132200Y0163719D01*
X0132072Y0164528D01*
X0131819Y0165306D01*
X0131447Y0166035D01*
X0130966Y0166698D01*
X0130388Y0167276D01*
X0129725Y0167757D01*
X0131429Y0166061D02*
X0136400Y0166061D01*
X0136400Y0164463D02*
X0132082Y0164463D01*
X0132200Y0163010D02*
X0127300Y0163010D01*
X0127300Y0158110D01*
X0127409Y0158110D01*
X0128218Y0158238D01*
X0128996Y0158491D01*
X0129725Y0158863D01*
X0130388Y0159344D01*
X0130966Y0159922D01*
X0131447Y0160585D01*
X0131819Y0161314D01*
X0132072Y0162092D01*
X0132200Y0162901D01*
X0132200Y0163010D01*
X0132194Y0162864D02*
X0136400Y0162864D01*
X0136400Y0161266D02*
X0131794Y0161266D01*
X0130711Y0159667D02*
X0136400Y0159667D01*
X0136400Y0158069D02*
X0107430Y0158069D01*
X0109679Y0156470D02*
X0136400Y0156470D01*
X0136400Y0154871D02*
X0111277Y0154871D01*
X0112876Y0153273D02*
X0136400Y0153273D01*
X0136400Y0151674D02*
X0114474Y0151674D01*
X0116073Y0150076D02*
X0136400Y0150076D01*
X0136400Y0148477D02*
X0117671Y0148477D01*
X0118701Y0146879D02*
X0120553Y0146879D01*
X0125447Y0146879D02*
X0130553Y0146879D01*
X0128542Y0145280D02*
X0127458Y0145280D01*
X0135447Y0146879D02*
X0136400Y0146879D01*
X0145600Y0151674D02*
X0190526Y0151674D01*
X0189381Y0150076D02*
X0146911Y0150076D01*
X0148509Y0148477D02*
X0188750Y0148477D01*
X0188750Y0146879D02*
X0174943Y0146879D01*
X0173381Y0146879D02*
X0172619Y0146879D01*
X0171057Y0146879D02*
X0165447Y0146879D01*
X0167458Y0145280D02*
X0168848Y0145280D01*
X0172619Y0145280D02*
X0173381Y0145280D01*
X0173381Y0143682D02*
X0172619Y0143682D01*
X0172619Y0142083D02*
X0173381Y0142083D01*
X0173381Y0140485D02*
X0172619Y0140485D01*
X0172619Y0138886D02*
X0173381Y0138886D01*
X0173381Y0137288D02*
X0172619Y0137288D01*
X0172619Y0135689D02*
X0173381Y0135689D01*
X0173381Y0134091D02*
X0172619Y0134091D01*
X0172619Y0132492D02*
X0173381Y0132492D01*
X0173381Y0130894D02*
X0172619Y0130894D01*
X0169271Y0130894D02*
X0167012Y0130894D01*
X0168086Y0132492D02*
X0168131Y0132492D01*
X0164371Y0129295D02*
X0189472Y0129295D01*
X0188810Y0127697D02*
X0089250Y0127697D01*
X0089250Y0129295D02*
X0111629Y0129295D01*
X0114371Y0129295D02*
X0121629Y0129295D01*
X0124371Y0129295D02*
X0131629Y0129295D01*
X0134371Y0129295D02*
X0141629Y0129295D01*
X0144371Y0129295D02*
X0151629Y0129295D01*
X0154371Y0129295D02*
X0161629Y0129295D01*
X0158988Y0130894D02*
X0157012Y0130894D01*
X0148988Y0130894D02*
X0147012Y0130894D01*
X0138988Y0130894D02*
X0137012Y0130894D01*
X0128988Y0130894D02*
X0127012Y0130894D01*
X0118988Y0130894D02*
X0117012Y0130894D01*
X0108988Y0130894D02*
X0106729Y0130894D01*
X0107869Y0132492D02*
X0107914Y0132492D01*
X0103381Y0132492D02*
X0102619Y0132492D01*
X0102619Y0130894D02*
X0103381Y0130894D01*
X0103381Y0134091D02*
X0102619Y0134091D01*
X0102619Y0135689D02*
X0103381Y0135689D01*
X0103381Y0137288D02*
X0102619Y0137288D01*
X0097638Y0137288D02*
X0089250Y0137288D01*
X0089250Y0138886D02*
X0097638Y0138886D01*
X0097638Y0140485D02*
X0089250Y0140485D01*
X0089250Y0142083D02*
X0097638Y0142083D01*
X0097950Y0143682D02*
X0089250Y0143682D01*
X0089250Y0145280D02*
X0098848Y0145280D01*
X0101057Y0146879D02*
X0089335Y0146879D01*
X0089250Y0148477D02*
X0099994Y0148477D01*
X0099160Y0150076D02*
X0088629Y0150076D01*
X0087670Y0151674D02*
X0098750Y0151674D01*
X0098750Y0153273D02*
X0086831Y0153273D01*
X0085277Y0154871D02*
X0099296Y0154871D01*
X0100321Y0156470D02*
X0082460Y0156470D01*
X0083941Y0158732D02*
X0085926Y0157910D01*
X0088074Y0157910D01*
X0090059Y0158732D01*
X0091578Y0160251D01*
X0092400Y0162236D01*
X0092400Y0164384D01*
X0091578Y0166369D01*
X0090059Y0167888D01*
X0088074Y0168710D01*
X0085926Y0168710D01*
X0083941Y0167888D01*
X0082422Y0166369D01*
X0081600Y0164384D01*
X0081600Y0162236D01*
X0082422Y0160251D01*
X0083941Y0158732D01*
X0083006Y0159667D02*
X0077250Y0159667D01*
X0077250Y0158069D02*
X0085543Y0158069D01*
X0088457Y0158069D02*
X0102570Y0158069D01*
X0091998Y0161266D02*
X0122206Y0161266D01*
X0121806Y0162864D02*
X0092400Y0162864D01*
X0092367Y0164463D02*
X0121918Y0164463D01*
X0122571Y0166061D02*
X0091705Y0166061D01*
X0090287Y0167660D02*
X0124140Y0167660D01*
X0126700Y0167660D02*
X0127300Y0167660D01*
X0127300Y0166061D02*
X0126700Y0166061D01*
X0126700Y0164463D02*
X0127300Y0164463D01*
X0127300Y0162864D02*
X0126700Y0162864D01*
X0126700Y0161266D02*
X0127300Y0161266D01*
X0127300Y0159667D02*
X0126700Y0159667D01*
X0123289Y0159667D02*
X0090994Y0159667D01*
X0082002Y0161266D02*
X0077250Y0161266D01*
X0077250Y0162864D02*
X0081600Y0162864D01*
X0081633Y0164463D02*
X0077250Y0164463D01*
X0077250Y0166061D02*
X0082295Y0166061D01*
X0083713Y0167660D02*
X0077250Y0167660D01*
X0064750Y0167660D02*
X0055704Y0167660D01*
X0054603Y0166061D02*
X0064750Y0166061D01*
X0064750Y0164463D02*
X0056201Y0164463D01*
X0057200Y0162864D02*
X0064750Y0162864D01*
X0064750Y0161266D02*
X0057200Y0161266D01*
X0057200Y0159667D02*
X0064750Y0159667D01*
X0064750Y0158069D02*
X0056112Y0158069D01*
X0054514Y0156470D02*
X0064750Y0156470D01*
X0063723Y0154871D02*
X0055509Y0154871D01*
X0057000Y0153273D02*
X0062124Y0153273D01*
X0060526Y0151674D02*
X0057000Y0151674D01*
X0057000Y0150076D02*
X0058927Y0150076D01*
X0057329Y0148477D02*
X0056239Y0148477D01*
X0024184Y0142083D02*
X0023816Y0142083D01*
X0023816Y0140485D02*
X0024184Y0140485D01*
X0024184Y0138886D02*
X0023816Y0138886D01*
X0023816Y0137288D02*
X0024184Y0137288D01*
X0024184Y0135689D02*
X0023816Y0135689D01*
X0023816Y0134091D02*
X0024184Y0134091D01*
X0024184Y0132492D02*
X0023816Y0132492D01*
X0025804Y0129295D02*
X0046800Y0129295D01*
X0042446Y0127697D02*
X0028436Y0127697D01*
X0029628Y0126098D02*
X0040829Y0126098D01*
X0039230Y0124500D02*
X0030290Y0124500D01*
X0030300Y0122901D02*
X0037632Y0122901D01*
X0037200Y0121303D02*
X0030024Y0121303D01*
X0029361Y0119704D02*
X0037200Y0119704D01*
X0037200Y0118106D02*
X0027792Y0118106D01*
X0025036Y0116507D02*
X0037200Y0116507D01*
X0037200Y0114909D02*
X0023438Y0114909D01*
X0023250Y0113310D02*
X0037200Y0113310D01*
X0037200Y0111712D02*
X0023250Y0111712D01*
X0023250Y0110113D02*
X0037200Y0110113D01*
X0037200Y0108515D02*
X0023250Y0108515D01*
X0023250Y0106916D02*
X0037200Y0106916D01*
X0037200Y0105318D02*
X0023250Y0105318D01*
X0023250Y0103719D02*
X0030513Y0103719D01*
X0028914Y0102121D02*
X0023250Y0102121D01*
X0023995Y0100522D02*
X0028053Y0100522D01*
X0027390Y0098924D02*
X0024657Y0098924D01*
X0024677Y0097325D02*
X0027370Y0097325D01*
X0027371Y0095727D02*
X0024676Y0095727D01*
X0029026Y0087734D02*
X0007901Y0087734D01*
X0007907Y0086136D02*
X0029026Y0086136D01*
X0029026Y0084537D02*
X0007912Y0084537D01*
X0007918Y0082938D02*
X0029026Y0082938D01*
X0029026Y0081340D02*
X0007923Y0081340D01*
X0007929Y0079741D02*
X0029026Y0079741D01*
X0029026Y0078143D02*
X0007934Y0078143D01*
X0007940Y0076544D02*
X0015729Y0076544D01*
X0014400Y0074946D02*
X0007945Y0074946D01*
X0007951Y0073347D02*
X0014400Y0073347D01*
X0014400Y0071749D02*
X0007957Y0071749D01*
X0007962Y0070150D02*
X0015654Y0070150D01*
X0015226Y0068552D02*
X0007968Y0068552D01*
X0007973Y0066953D02*
X0013628Y0066953D01*
X0012947Y0065355D02*
X0007979Y0065355D01*
X0007984Y0063756D02*
X0012625Y0063756D01*
X0012620Y0062158D02*
X0007990Y0062158D01*
X0007995Y0060559D02*
X0012748Y0060559D01*
X0013487Y0058961D02*
X0008001Y0058961D01*
X0008006Y0057362D02*
X0014346Y0057362D01*
X0014625Y0055764D02*
X0008012Y0055764D01*
X0008017Y0054165D02*
X0014625Y0054165D01*
X0014625Y0052567D02*
X0008023Y0052567D01*
X0008028Y0050968D02*
X0014625Y0050968D01*
X0014625Y0049370D02*
X0008034Y0049370D01*
X0008039Y0047771D02*
X0014625Y0047771D01*
X0014625Y0046173D02*
X0008045Y0046173D01*
X0008050Y0044574D02*
X0014819Y0044574D01*
X0015481Y0042976D02*
X0008056Y0042976D01*
X0008061Y0041377D02*
X0016917Y0041377D01*
X0017256Y0039779D02*
X0008067Y0039779D01*
X0008072Y0038180D02*
X0015900Y0038180D01*
X0015900Y0036582D02*
X0008078Y0036582D01*
X0008084Y0034983D02*
X0015900Y0034983D01*
X0016713Y0033385D02*
X0008089Y0033385D01*
X0008095Y0031786D02*
X0018311Y0031786D01*
X0017382Y0030188D02*
X0008122Y0030188D01*
X0009700Y0028589D02*
X0015784Y0028589D01*
X0015700Y0026991D02*
X0011277Y0026991D01*
X0012854Y0025392D02*
X0015700Y0025392D01*
X0016021Y0023794D02*
X0014432Y0023794D01*
X0023354Y0031451D02*
X0025745Y0029060D01*
X0040861Y0029060D01*
X0046250Y0034449D01*
X0046250Y0037875D01*
X0046083Y0037944D01*
X0044634Y0039393D01*
X0043850Y0041286D01*
X0043850Y0043334D01*
X0044634Y0045227D01*
X0046083Y0046676D01*
X0046250Y0046745D01*
X0046250Y0046857D01*
X0046669Y0047868D01*
X0052669Y0053868D01*
X0053442Y0054641D01*
X0054453Y0055060D01*
X0072547Y0055060D01*
X0073558Y0054641D01*
X0077139Y0051060D01*
X0080462Y0051060D01*
X0080200Y0051322D01*
X0080200Y0055060D01*
X0038570Y0055060D01*
X0038268Y0054935D01*
X0031936Y0054935D01*
X0027375Y0053567D01*
X0027375Y0045042D01*
X0026404Y0042699D01*
X0024611Y0040905D01*
X0023908Y0040614D01*
X0026100Y0038422D01*
X0026100Y0036510D01*
X0021200Y0036510D01*
X0021200Y0036110D01*
X0026100Y0036110D01*
X0026100Y0034197D01*
X0023354Y0031451D01*
X0023689Y0031786D02*
X0043587Y0031786D01*
X0041989Y0030188D02*
X0024618Y0030188D01*
X0025287Y0033385D02*
X0045186Y0033385D01*
X0046250Y0034983D02*
X0026100Y0034983D01*
X0026100Y0036582D02*
X0046250Y0036582D01*
X0045847Y0038180D02*
X0026100Y0038180D01*
X0024744Y0039779D02*
X0044474Y0039779D01*
X0043850Y0041377D02*
X0025083Y0041377D01*
X0026519Y0042976D02*
X0043850Y0042976D01*
X0044364Y0044574D02*
X0027181Y0044574D01*
X0027375Y0046173D02*
X0045580Y0046173D01*
X0046629Y0047771D02*
X0027375Y0047771D01*
X0027375Y0049370D02*
X0048171Y0049370D01*
X0049769Y0050968D02*
X0027375Y0050968D01*
X0027375Y0052567D02*
X0051368Y0052567D01*
X0052966Y0054165D02*
X0029370Y0054165D01*
X0052752Y0046173D02*
X0055862Y0046173D01*
X0054350Y0047771D02*
X0064400Y0047771D01*
X0064400Y0047310D02*
X0064400Y0045405D01*
X0067095Y0042710D01*
X0069000Y0042710D01*
X0069000Y0047310D01*
X0064400Y0047310D01*
X0064400Y0046173D02*
X0062138Y0046173D01*
X0063736Y0044574D02*
X0065230Y0044574D01*
X0063950Y0042976D02*
X0066829Y0042976D01*
X0069000Y0042976D02*
X0069000Y0042976D01*
X0069000Y0044574D02*
X0069000Y0044574D01*
X0069000Y0046173D02*
X0069000Y0046173D01*
X0069000Y0047310D02*
X0069000Y0047310D01*
X0064554Y0049370D02*
X0055949Y0049370D01*
X0059000Y0046173D02*
X0059000Y0046173D01*
X0059000Y0044574D02*
X0059000Y0044574D01*
X0059000Y0042976D02*
X0059000Y0042976D01*
X0059000Y0041377D02*
X0059000Y0041377D01*
X0059000Y0039779D02*
X0059000Y0039779D01*
X0059000Y0038180D02*
X0059000Y0038180D01*
X0061871Y0038180D02*
X0070021Y0038180D01*
X0069208Y0039779D02*
X0063469Y0039779D01*
X0063950Y0041377D02*
X0077000Y0041377D01*
X0077400Y0041377D02*
X0102600Y0041377D01*
X0103000Y0041377D02*
X0213759Y0041377D01*
X0215348Y0042976D02*
X0209171Y0042976D01*
X0208905Y0042710D02*
X0211600Y0045405D01*
X0211600Y0047310D01*
X0211600Y0049215D01*
X0208905Y0051910D01*
X0207000Y0051910D01*
X0207000Y0047310D01*
X0207000Y0047310D01*
X0207000Y0051910D01*
X0205095Y0051910D01*
X0202400Y0049215D01*
X0202400Y0047310D01*
X0207000Y0047310D01*
X0211600Y0047310D01*
X0207000Y0047310D01*
X0207000Y0047310D01*
X0207000Y0047310D01*
X0202400Y0047310D01*
X0202400Y0045405D01*
X0205095Y0042710D01*
X0207000Y0042710D01*
X0208905Y0042710D01*
X0207000Y0042710D02*
X0207000Y0047310D01*
X0207000Y0047310D01*
X0207000Y0042710D01*
X0207000Y0042976D02*
X0207000Y0042976D01*
X0207000Y0044574D02*
X0207000Y0044574D01*
X0207000Y0046173D02*
X0207000Y0046173D01*
X0207000Y0047771D02*
X0207000Y0047771D01*
X0207000Y0049370D02*
X0207000Y0049370D01*
X0207000Y0050968D02*
X0207000Y0050968D01*
X0209847Y0050968D02*
X0223292Y0050968D01*
X0221703Y0049370D02*
X0211446Y0049370D01*
X0211600Y0047771D02*
X0220115Y0047771D01*
X0218526Y0046173D02*
X0211600Y0046173D01*
X0210770Y0044574D02*
X0216937Y0044574D01*
X0224800Y0044574D02*
X0225200Y0044574D01*
X0225643Y0044574D02*
X0233337Y0044574D01*
X0234177Y0046173D02*
X0226280Y0046173D01*
X0227869Y0047771D02*
X0233200Y0047771D01*
X0233200Y0049370D02*
X0229458Y0049370D01*
X0231047Y0050968D02*
X0233200Y0050968D01*
X0233200Y0052567D02*
X0231751Y0052567D01*
X0231750Y0054165D02*
X0233200Y0054165D01*
X0233200Y0055764D02*
X0231750Y0055764D01*
X0231750Y0057362D02*
X0232159Y0057362D01*
X0236000Y0060310D02*
X0236000Y0048310D01*
X0245000Y0039310D01*
X0249112Y0042976D02*
X0250888Y0042976D01*
X0253337Y0044574D02*
X0246663Y0044574D01*
X0242097Y0046173D02*
X0258200Y0046173D01*
X0258200Y0047771D02*
X0240498Y0047771D01*
X0238900Y0049370D02*
X0258200Y0049370D01*
X0258200Y0050968D02*
X0238800Y0050968D01*
X0238800Y0052567D02*
X0258200Y0052567D01*
X0258200Y0054165D02*
X0238800Y0054165D01*
X0238800Y0055764D02*
X0258200Y0055764D01*
X0257159Y0057362D02*
X0239841Y0057362D01*
X0240800Y0058961D02*
X0256200Y0058961D01*
X0256200Y0060559D02*
X0240800Y0060559D01*
X0240800Y0062158D02*
X0256200Y0062158D01*
X0257658Y0063756D02*
X0239342Y0063756D01*
X0239149Y0066953D02*
X0257851Y0066953D01*
X0259095Y0065710D02*
X0256400Y0068405D01*
X0256400Y0070310D01*
X0261000Y0070310D01*
X0261000Y0070310D01*
X0261000Y0074910D01*
X0262905Y0074910D01*
X0265600Y0072215D01*
X0265600Y0070310D01*
X0261000Y0070310D01*
X0261000Y0074910D01*
X0259095Y0074910D01*
X0256400Y0072215D01*
X0256400Y0070310D01*
X0261000Y0070310D01*
X0261000Y0070310D01*
X0261000Y0070310D01*
X0265600Y0070310D01*
X0265600Y0068405D01*
X0262905Y0065710D01*
X0261000Y0065710D01*
X0261000Y0070310D01*
X0261000Y0070310D01*
X0261000Y0065710D01*
X0259095Y0065710D01*
X0261000Y0066953D02*
X0261000Y0066953D01*
X0261000Y0068552D02*
X0261000Y0068552D01*
X0261000Y0070150D02*
X0261000Y0070150D01*
X0261000Y0071749D02*
X0261000Y0071749D01*
X0261000Y0073347D02*
X0261000Y0073347D01*
X0264468Y0073347D02*
X0282532Y0073347D01*
X0281400Y0072215D02*
X0281400Y0070310D01*
X0286000Y0070310D01*
X0286000Y0070310D01*
X0286000Y0074910D01*
X0287905Y0074910D01*
X0290600Y0072215D01*
X0290600Y0070310D01*
X0286000Y0070310D01*
X0286000Y0074910D01*
X0284095Y0074910D01*
X0281400Y0072215D01*
X0281400Y0071749D02*
X0265600Y0071749D01*
X0265600Y0070150D02*
X0281400Y0070150D01*
X0281400Y0070310D02*
X0281400Y0068405D01*
X0284095Y0065710D01*
X0286000Y0065710D01*
X0287905Y0065710D01*
X0290600Y0068405D01*
X0290600Y0070310D01*
X0286000Y0070310D01*
X0286000Y0070310D01*
X0286000Y0070310D01*
X0281400Y0070310D01*
X0281400Y0068552D02*
X0265600Y0068552D01*
X0264149Y0066953D02*
X0282851Y0066953D01*
X0286000Y0066953D02*
X0286000Y0066953D01*
X0286000Y0065710D02*
X0286000Y0070310D01*
X0286000Y0070310D01*
X0286000Y0065710D01*
X0286000Y0068552D02*
X0286000Y0068552D01*
X0286000Y0070150D02*
X0286000Y0070150D01*
X0286000Y0071749D02*
X0286000Y0071749D01*
X0286000Y0073347D02*
X0286000Y0073347D01*
X0289468Y0073347D02*
X0307532Y0073347D01*
X0306400Y0072215D02*
X0306400Y0070310D01*
X0311000Y0070310D01*
X0311000Y0070310D01*
X0311000Y0074910D01*
X0312905Y0074910D01*
X0315600Y0072215D01*
X0315600Y0070310D01*
X0311000Y0070310D01*
X0311000Y0074910D01*
X0309095Y0074910D01*
X0306400Y0072215D01*
X0306400Y0071749D02*
X0290600Y0071749D01*
X0290600Y0070150D02*
X0306400Y0070150D01*
X0306400Y0070310D02*
X0306400Y0068405D01*
X0309095Y0065710D01*
X0311000Y0065710D01*
X0312905Y0065710D01*
X0315600Y0068405D01*
X0315600Y0070310D01*
X0311000Y0070310D01*
X0311000Y0070310D01*
X0311000Y0070310D01*
X0306400Y0070310D01*
X0306400Y0068552D02*
X0290600Y0068552D01*
X0289149Y0066953D02*
X0307851Y0066953D01*
X0311000Y0066953D02*
X0311000Y0066953D01*
X0311000Y0065710D02*
X0311000Y0070310D01*
X0311000Y0070310D01*
X0311000Y0065710D01*
X0311000Y0068552D02*
X0311000Y0068552D01*
X0311000Y0070150D02*
X0311000Y0070150D01*
X0311000Y0071749D02*
X0311000Y0071749D01*
X0311000Y0073347D02*
X0311000Y0073347D01*
X0314468Y0073347D02*
X0332532Y0073347D01*
X0331400Y0072215D02*
X0331400Y0070310D01*
X0336000Y0070310D01*
X0336000Y0070310D01*
X0336000Y0074910D01*
X0337905Y0074910D01*
X0340600Y0072215D01*
X0340600Y0070310D01*
X0336000Y0070310D01*
X0336000Y0074910D01*
X0334095Y0074910D01*
X0331400Y0072215D01*
X0331400Y0071749D02*
X0315600Y0071749D01*
X0315600Y0070150D02*
X0331400Y0070150D01*
X0331400Y0070310D02*
X0331400Y0068405D01*
X0334095Y0065710D01*
X0336000Y0065710D01*
X0337905Y0065710D01*
X0340600Y0068405D01*
X0340600Y0070310D01*
X0336000Y0070310D01*
X0336000Y0070310D01*
X0336000Y0070310D01*
X0331400Y0070310D01*
X0331400Y0068552D02*
X0315600Y0068552D01*
X0314149Y0066953D02*
X0332851Y0066953D01*
X0336000Y0066953D02*
X0336000Y0066953D01*
X0336000Y0065710D02*
X0336000Y0070310D01*
X0336000Y0070310D01*
X0336000Y0065710D01*
X0336000Y0068552D02*
X0336000Y0068552D01*
X0336000Y0070150D02*
X0336000Y0070150D01*
X0336000Y0071749D02*
X0336000Y0071749D01*
X0336000Y0073347D02*
X0336000Y0073347D01*
X0339468Y0073347D02*
X0344730Y0073347D01*
X0346968Y0071749D02*
X0340600Y0071749D01*
X0340600Y0070150D02*
X0348200Y0070150D01*
X0348200Y0068552D02*
X0340600Y0068552D01*
X0339149Y0066953D02*
X0348200Y0066953D01*
X0348200Y0065355D02*
X0231750Y0065355D01*
X0231750Y0066953D02*
X0232851Y0066953D01*
X0236000Y0066953D02*
X0236000Y0066953D01*
X0236000Y0068552D02*
X0236000Y0068552D01*
X0236000Y0070150D02*
X0236000Y0070150D01*
X0236000Y0071749D02*
X0236000Y0071749D01*
X0236000Y0073347D02*
X0236000Y0073347D01*
X0239468Y0073347D02*
X0257532Y0073347D01*
X0256400Y0071749D02*
X0240600Y0071749D01*
X0240600Y0070150D02*
X0256400Y0070150D01*
X0256400Y0068552D02*
X0240600Y0068552D01*
X0232658Y0063756D02*
X0231750Y0063756D01*
X0226250Y0063756D02*
X0152406Y0063756D01*
X0150808Y0062158D02*
X0226250Y0062158D01*
X0226250Y0060559D02*
X0149209Y0060559D01*
X0147611Y0058961D02*
X0226250Y0058961D01*
X0226250Y0057362D02*
X0196736Y0057362D01*
X0195988Y0058110D02*
X0192012Y0058110D01*
X0189200Y0055298D01*
X0189200Y0051322D01*
X0192012Y0048510D01*
X0195988Y0048510D01*
X0198800Y0051322D01*
X0198800Y0055298D01*
X0195988Y0058110D01*
X0198334Y0055764D02*
X0226250Y0055764D01*
X0226250Y0054165D02*
X0198800Y0054165D01*
X0198800Y0052567D02*
X0224881Y0052567D01*
X0224800Y0042976D02*
X0225200Y0042976D01*
X0225200Y0041377D02*
X0224800Y0041377D01*
X0224800Y0039779D02*
X0225200Y0039779D01*
X0225200Y0038180D02*
X0224800Y0038180D01*
X0224800Y0036582D02*
X0225200Y0036582D01*
X0225200Y0034983D02*
X0224800Y0034983D01*
X0221938Y0034983D02*
X0216789Y0034983D01*
X0216978Y0036582D02*
X0220442Y0036582D01*
X0219813Y0038180D02*
X0218336Y0038180D01*
X0215866Y0033385D02*
X0370327Y0033385D01*
X0369648Y0034983D02*
X0350500Y0034983D01*
X0350500Y0036582D02*
X0369500Y0036582D01*
X0369825Y0038180D02*
X0350500Y0038180D01*
X0350500Y0039779D02*
X0370722Y0039779D01*
X0371872Y0041377D02*
X0350500Y0041377D01*
X0350500Y0042976D02*
X0354634Y0042976D01*
X0353036Y0044574D02*
X0349564Y0044574D01*
X0351437Y0046173D02*
X0335823Y0046173D01*
X0336663Y0044574D02*
X0340436Y0044574D01*
X0339500Y0042976D02*
X0339112Y0042976D01*
X0337421Y0047771D02*
X0349839Y0047771D01*
X0348980Y0049370D02*
X0338641Y0049370D01*
X0338800Y0050968D02*
X0348200Y0050968D01*
X0348200Y0052567D02*
X0338800Y0052567D01*
X0338800Y0054165D02*
X0348200Y0054165D01*
X0348200Y0055764D02*
X0338800Y0055764D01*
X0339841Y0057362D02*
X0348200Y0057362D01*
X0348200Y0058961D02*
X0340800Y0058961D01*
X0340800Y0060559D02*
X0348200Y0060559D01*
X0348200Y0062158D02*
X0340800Y0062158D01*
X0339342Y0063756D02*
X0348200Y0063756D01*
X0336000Y0060310D02*
X0336000Y0050310D01*
X0325000Y0039310D01*
X0320888Y0042976D02*
X0319112Y0042976D01*
X0316663Y0044574D02*
X0323337Y0044574D01*
X0327903Y0046173D02*
X0313800Y0046173D01*
X0313800Y0047771D02*
X0329502Y0047771D01*
X0331100Y0049370D02*
X0313800Y0049370D01*
X0313800Y0050968D02*
X0332699Y0050968D01*
X0333200Y0052567D02*
X0313800Y0052567D01*
X0313800Y0054165D02*
X0333200Y0054165D01*
X0333200Y0055764D02*
X0313800Y0055764D01*
X0314841Y0057362D02*
X0332159Y0057362D01*
X0331200Y0058961D02*
X0315800Y0058961D01*
X0315800Y0060559D02*
X0331200Y0060559D01*
X0331200Y0062158D02*
X0315800Y0062158D01*
X0314342Y0063756D02*
X0332658Y0063756D01*
X0342404Y0074946D02*
X0231750Y0074946D01*
X0231750Y0076544D02*
X0280725Y0076544D01*
X0278727Y0078143D02*
X0231800Y0078143D01*
X0231800Y0079741D02*
X0276728Y0079741D01*
X0275338Y0081340D02*
X0231800Y0081340D01*
X0231800Y0082938D02*
X0275200Y0082938D01*
X0275200Y0084537D02*
X0231800Y0084537D01*
X0232785Y0086136D02*
X0275200Y0086136D01*
X0275200Y0087734D02*
X0234384Y0087734D01*
X0238811Y0089333D02*
X0275200Y0089333D01*
X0275227Y0090931D02*
X0240409Y0090931D01*
X0240800Y0092530D02*
X0276165Y0092530D01*
X0276163Y0094128D02*
X0277364Y0094128D01*
X0275200Y0094128D02*
X0274800Y0094128D01*
X0273837Y0094128D02*
X0266862Y0094128D01*
X0269195Y0095727D02*
X0271088Y0095727D01*
X0274800Y0095727D02*
X0275200Y0095727D01*
X0275200Y0097325D02*
X0274800Y0097325D01*
X0274800Y0098924D02*
X0275200Y0098924D01*
X0275200Y0099510D02*
X0274800Y0099510D01*
X0274800Y0104610D01*
X0274583Y0104610D01*
X0273759Y0104479D01*
X0272966Y0104222D01*
X0272222Y0103843D01*
X0271547Y0103353D01*
X0270957Y0102763D01*
X0270467Y0102088D01*
X0270101Y0101368D01*
X0269663Y0102425D01*
X0268115Y0103973D01*
X0266094Y0104810D01*
X0263906Y0104810D01*
X0261884Y0103973D01*
X0260337Y0102425D01*
X0260000Y0101611D01*
X0259663Y0102425D01*
X0258115Y0103973D01*
X0257750Y0104124D01*
X0257750Y0121171D01*
X0260139Y0123560D01*
X0266962Y0123560D01*
X0269012Y0121510D01*
X0272988Y0121510D01*
X0275038Y0123560D01*
X0284962Y0123560D01*
X0287012Y0121510D01*
X0290988Y0121510D01*
X0293038Y0123560D01*
X0302962Y0123560D01*
X0305012Y0121510D01*
X0308988Y0121510D01*
X0311038Y0123560D01*
X0318962Y0123560D01*
X0321012Y0121510D01*
X0321240Y0121510D01*
X0319414Y0119684D01*
X0318909Y0119179D01*
X0318115Y0119973D01*
X0316094Y0120810D01*
X0313906Y0120810D01*
X0311884Y0119973D01*
X0310337Y0118425D01*
X0310000Y0117611D01*
X0309663Y0118425D01*
X0308115Y0119973D01*
X0306094Y0120810D01*
X0303906Y0120810D01*
X0301884Y0119973D01*
X0300337Y0118425D01*
X0300000Y0117611D01*
X0299663Y0118425D01*
X0298115Y0119973D01*
X0296094Y0120810D01*
X0293906Y0120810D01*
X0291884Y0119973D01*
X0290337Y0118425D01*
X0290000Y0117611D01*
X0289663Y0118425D01*
X0288115Y0119973D01*
X0286094Y0120810D01*
X0283906Y0120810D01*
X0281884Y0119973D01*
X0280337Y0118425D01*
X0279500Y0116404D01*
X0279500Y0114216D01*
X0280337Y0112194D01*
X0281884Y0110647D01*
X0283906Y0109810D01*
X0286094Y0109810D01*
X0288115Y0110647D01*
X0289663Y0112194D01*
X0290000Y0113009D01*
X0290337Y0112194D01*
X0291884Y0110647D01*
X0293906Y0109810D01*
X0296094Y0109810D01*
X0298115Y0110647D01*
X0299663Y0112194D01*
X0300000Y0113009D01*
X0300337Y0112194D01*
X0301884Y0110647D01*
X0303906Y0109810D01*
X0306094Y0109810D01*
X0308115Y0110647D01*
X0309663Y0112194D01*
X0310000Y0113009D01*
X0310337Y0112194D01*
X0311884Y0110647D01*
X0313906Y0109810D01*
X0316094Y0109810D01*
X0318115Y0110647D01*
X0318200Y0110732D01*
X0318200Y0103888D01*
X0318115Y0103973D01*
X0316094Y0104810D01*
X0313906Y0104810D01*
X0311884Y0103973D01*
X0310337Y0102425D01*
X0310000Y0101611D01*
X0309663Y0102425D01*
X0308115Y0103973D01*
X0306094Y0104810D01*
X0303906Y0104810D01*
X0301884Y0103973D01*
X0300337Y0102425D01*
X0300000Y0101611D01*
X0299663Y0102425D01*
X0298115Y0103973D01*
X0296094Y0104810D01*
X0293906Y0104810D01*
X0291884Y0103973D01*
X0290337Y0102425D01*
X0290000Y0101611D01*
X0289663Y0102425D01*
X0288115Y0103973D01*
X0286094Y0104810D01*
X0283906Y0104810D01*
X0281884Y0103973D01*
X0280337Y0102425D01*
X0279899Y0101368D01*
X0279533Y0102088D01*
X0279043Y0102763D01*
X0278453Y0103353D01*
X0277778Y0103843D01*
X0277034Y0104222D01*
X0276241Y0104479D01*
X0275417Y0104610D01*
X0275200Y0104610D01*
X0275200Y0099510D01*
X0275200Y0100522D02*
X0274800Y0100522D01*
X0274800Y0102121D02*
X0275200Y0102121D01*
X0275200Y0103719D02*
X0274800Y0103719D01*
X0272052Y0103719D02*
X0268369Y0103719D01*
X0269789Y0102121D02*
X0270491Y0102121D01*
X0277948Y0103719D02*
X0281631Y0103719D01*
X0280211Y0102121D02*
X0279509Y0102121D01*
X0288369Y0103719D02*
X0291631Y0103719D01*
X0290211Y0102121D02*
X0289789Y0102121D01*
X0298369Y0103719D02*
X0301631Y0103719D01*
X0300211Y0102121D02*
X0299789Y0102121D01*
X0308369Y0103719D02*
X0311631Y0103719D01*
X0310211Y0102121D02*
X0309789Y0102121D01*
X0318200Y0105318D02*
X0257750Y0105318D01*
X0257750Y0106916D02*
X0318200Y0106916D01*
X0318200Y0108515D02*
X0257750Y0108515D01*
X0257750Y0110113D02*
X0283174Y0110113D01*
X0280820Y0111712D02*
X0257750Y0111712D01*
X0257750Y0113310D02*
X0279875Y0113310D01*
X0279500Y0114909D02*
X0257750Y0114909D01*
X0257750Y0116507D02*
X0279543Y0116507D01*
X0280205Y0118106D02*
X0257750Y0118106D01*
X0257750Y0119704D02*
X0281616Y0119704D01*
X0288384Y0119704D02*
X0291616Y0119704D01*
X0290205Y0118106D02*
X0289795Y0118106D01*
X0292380Y0122901D02*
X0303620Y0122901D01*
X0301616Y0119704D02*
X0298384Y0119704D01*
X0299795Y0118106D02*
X0300205Y0118106D01*
X0308384Y0119704D02*
X0311616Y0119704D01*
X0310205Y0118106D02*
X0309795Y0118106D01*
X0310380Y0122901D02*
X0319620Y0122901D01*
X0321033Y0121303D02*
X0257882Y0121303D01*
X0259480Y0122901D02*
X0267620Y0122901D01*
X0274380Y0122901D02*
X0285620Y0122901D01*
X0289180Y0111712D02*
X0290820Y0111712D01*
X0293174Y0110113D02*
X0286826Y0110113D01*
X0296826Y0110113D02*
X0303174Y0110113D01*
X0300820Y0111712D02*
X0299180Y0111712D01*
X0306826Y0110113D02*
X0313174Y0110113D01*
X0310820Y0111712D02*
X0309180Y0111712D01*
X0316826Y0110113D02*
X0318200Y0110113D01*
X0318384Y0119704D02*
X0319435Y0119704D01*
X0261631Y0103719D02*
X0258369Y0103719D01*
X0259789Y0102121D02*
X0260211Y0102121D01*
X0252250Y0105318D02*
X0238750Y0105318D01*
X0238750Y0103719D02*
X0251631Y0103719D01*
X0250211Y0102121D02*
X0238750Y0102121D01*
X0238750Y0100522D02*
X0249549Y0100522D01*
X0249500Y0098924D02*
X0238750Y0098924D01*
X0238773Y0097325D02*
X0249869Y0097325D01*
X0250805Y0095727D02*
X0240372Y0095727D01*
X0240800Y0094128D02*
X0253138Y0094128D01*
X0256862Y0094128D02*
X0263138Y0094128D01*
X0260805Y0095727D02*
X0259195Y0095727D01*
X0236000Y0093310D02*
X0229000Y0086310D01*
X0229000Y0077310D01*
X0226250Y0076544D02*
X0195474Y0076544D01*
X0193469Y0078143D02*
X0226200Y0078143D01*
X0226200Y0079741D02*
X0191924Y0079741D01*
X0190131Y0081340D02*
X0189600Y0081340D01*
X0197869Y0081340D02*
X0226200Y0081340D01*
X0226200Y0082938D02*
X0209417Y0082938D01*
X0211015Y0084537D02*
X0226200Y0084537D01*
X0226200Y0086136D02*
X0211800Y0086136D01*
X0211800Y0087734D02*
X0226559Y0087734D01*
X0226000Y0088710D02*
X0226000Y0093310D01*
X0221400Y0093310D01*
X0221400Y0091405D01*
X0224095Y0088710D01*
X0226000Y0088710D01*
X0226000Y0089333D02*
X0226000Y0089333D01*
X0226000Y0090931D02*
X0226000Y0090931D01*
X0226000Y0092530D02*
X0226000Y0092530D01*
X0226000Y0093310D02*
X0226000Y0093310D01*
X0226000Y0094128D02*
X0226000Y0094128D01*
X0226000Y0095727D02*
X0226000Y0095727D01*
X0226000Y0097325D02*
X0226000Y0097325D01*
X0228490Y0097325D02*
X0233227Y0097325D01*
X0233250Y0098924D02*
X0212109Y0098924D01*
X0212300Y0100522D02*
X0233250Y0100522D01*
X0233250Y0102121D02*
X0212300Y0102121D01*
X0214139Y0103719D02*
X0233250Y0103719D01*
X0232533Y0105318D02*
X0216124Y0105318D01*
X0218110Y0106916D02*
X0230935Y0106916D01*
X0229336Y0108515D02*
X0218684Y0108515D01*
X0218680Y0110113D02*
X0227738Y0110113D01*
X0226139Y0111712D02*
X0218680Y0111712D01*
X0218680Y0113310D02*
X0224541Y0113310D01*
X0222942Y0114909D02*
X0218680Y0114909D01*
X0218680Y0116507D02*
X0221344Y0116507D01*
X0219917Y0118106D02*
X0218680Y0118106D01*
X0218495Y0119704D02*
X0219620Y0119704D01*
X0219620Y0121303D02*
X0217376Y0121303D01*
X0216258Y0122901D02*
X0219620Y0122901D01*
X0219620Y0124500D02*
X0215139Y0124500D01*
X0214021Y0126098D02*
X0219620Y0126098D01*
X0219620Y0127697D02*
X0212903Y0127697D01*
X0212300Y0129295D02*
X0219620Y0129295D01*
X0219620Y0130894D02*
X0211911Y0130894D01*
X0210313Y0132492D02*
X0219620Y0132492D01*
X0219620Y0134091D02*
X0210276Y0134091D01*
X0211875Y0135689D02*
X0219620Y0135689D01*
X0219620Y0137288D02*
X0212300Y0137288D01*
X0212300Y0138886D02*
X0219620Y0138886D01*
X0219620Y0140485D02*
X0212300Y0140485D01*
X0210722Y0142083D02*
X0219620Y0142083D01*
X0219620Y0143682D02*
X0201250Y0143682D01*
X0201250Y0142083D02*
X0203278Y0142083D01*
X0201700Y0140485D02*
X0201009Y0140485D01*
X0200347Y0138886D02*
X0201700Y0138886D01*
X0201700Y0137288D02*
X0198817Y0137288D01*
X0202125Y0135689D02*
X0178362Y0135689D01*
X0178325Y0134091D02*
X0203724Y0134091D01*
X0203687Y0132492D02*
X0196406Y0132492D01*
X0193594Y0132492D02*
X0177869Y0132492D01*
X0176729Y0130894D02*
X0190745Y0130894D01*
X0188750Y0126098D02*
X0171640Y0126098D01*
X0164360Y0126098D02*
X0161640Y0126098D01*
X0162932Y0124500D02*
X0163068Y0124500D01*
X0154360Y0126098D02*
X0151640Y0126098D01*
X0152932Y0124500D02*
X0153068Y0124500D01*
X0144360Y0126098D02*
X0141306Y0126098D01*
X0142679Y0124500D02*
X0143068Y0124500D01*
X0138381Y0124500D02*
X0137619Y0124500D01*
X0137619Y0126098D02*
X0138381Y0126098D01*
X0138381Y0122901D02*
X0137619Y0122901D01*
X0137619Y0121303D02*
X0138381Y0121303D01*
X0138381Y0119704D02*
X0137619Y0119704D01*
X0133321Y0124500D02*
X0132932Y0124500D01*
X0131640Y0126098D02*
X0134694Y0126098D01*
X0124360Y0126098D02*
X0121640Y0126098D01*
X0122932Y0124500D02*
X0123068Y0124500D01*
X0114360Y0126098D02*
X0111640Y0126098D01*
X0112932Y0124500D02*
X0113068Y0124500D01*
X0104360Y0126098D02*
X0100889Y0126098D01*
X0102487Y0124500D02*
X0103068Y0124500D01*
X0099271Y0130894D02*
X0089250Y0130894D01*
X0089250Y0132492D02*
X0098131Y0132492D01*
X0097675Y0134091D02*
X0089250Y0134091D01*
X0089250Y0135689D02*
X0097638Y0135689D01*
X0145600Y0153273D02*
X0193064Y0153273D01*
X0194723Y0154871D02*
X0145600Y0154871D01*
X0145600Y0156470D02*
X0196321Y0156470D01*
X0197750Y0158069D02*
X0192457Y0158069D01*
X0192074Y0157910D02*
X0194059Y0158732D01*
X0195578Y0160251D01*
X0196400Y0162236D01*
X0196400Y0164384D01*
X0195578Y0166369D01*
X0194059Y0167888D01*
X0192074Y0168710D01*
X0189926Y0168710D01*
X0187941Y0167888D01*
X0186422Y0166369D01*
X0185600Y0164384D01*
X0185600Y0162236D01*
X0186422Y0160251D01*
X0187941Y0158732D01*
X0189926Y0157910D01*
X0192074Y0157910D01*
X0189543Y0158069D02*
X0145600Y0158069D01*
X0145600Y0159667D02*
X0147289Y0159667D01*
X0147034Y0159922D02*
X0147612Y0159344D01*
X0148275Y0158863D01*
X0149004Y0158491D01*
X0149782Y0158238D01*
X0150591Y0158110D01*
X0150700Y0158110D01*
X0150700Y0163010D01*
X0145800Y0163010D01*
X0145800Y0162901D01*
X0145928Y0162092D01*
X0146181Y0161314D01*
X0146553Y0160585D01*
X0147034Y0159922D01*
X0146206Y0161266D02*
X0145600Y0161266D01*
X0145600Y0162864D02*
X0145806Y0162864D01*
X0145800Y0163610D02*
X0150700Y0163610D01*
X0150700Y0168510D01*
X0150591Y0168510D01*
X0149782Y0168382D01*
X0149004Y0168129D01*
X0148275Y0167757D01*
X0147612Y0167276D01*
X0147034Y0166698D01*
X0146553Y0166035D01*
X0146181Y0165306D01*
X0145928Y0164528D01*
X0145800Y0163719D01*
X0145800Y0163610D01*
X0145918Y0164463D02*
X0145600Y0164463D01*
X0145600Y0166061D02*
X0146571Y0166061D01*
X0145600Y0167660D02*
X0148140Y0167660D01*
X0150700Y0167660D02*
X0151300Y0167660D01*
X0151300Y0168510D02*
X0151300Y0163610D01*
X0150700Y0163610D01*
X0150700Y0163010D01*
X0151300Y0163010D01*
X0151300Y0163610D01*
X0156200Y0163610D01*
X0156200Y0163719D01*
X0156072Y0164528D01*
X0155819Y0165306D01*
X0155447Y0166035D01*
X0154966Y0166698D01*
X0154388Y0167276D01*
X0153725Y0167757D01*
X0152996Y0168129D01*
X0152218Y0168382D01*
X0151409Y0168510D01*
X0151300Y0168510D01*
X0151300Y0166061D02*
X0150700Y0166061D01*
X0150700Y0164463D02*
X0151300Y0164463D01*
X0151300Y0163010D02*
X0156200Y0163010D01*
X0156200Y0162901D01*
X0156072Y0162092D01*
X0155819Y0161314D01*
X0155447Y0160585D01*
X0154966Y0159922D01*
X0154388Y0159344D01*
X0153725Y0158863D01*
X0152996Y0158491D01*
X0152218Y0158238D01*
X0151409Y0158110D01*
X0151300Y0158110D01*
X0151300Y0163010D01*
X0151300Y0162864D02*
X0150700Y0162864D01*
X0150700Y0161266D02*
X0151300Y0161266D01*
X0151300Y0159667D02*
X0150700Y0159667D01*
X0154711Y0159667D02*
X0187006Y0159667D01*
X0186002Y0161266D02*
X0155794Y0161266D01*
X0156194Y0162864D02*
X0185600Y0162864D01*
X0185633Y0164463D02*
X0156082Y0164463D01*
X0155429Y0166061D02*
X0186295Y0166061D01*
X0187713Y0167660D02*
X0153860Y0167660D01*
X0145600Y0169258D02*
X0194385Y0169258D01*
X0194287Y0167660D02*
X0196275Y0167660D01*
X0195705Y0166061D02*
X0197750Y0166061D01*
X0197750Y0164463D02*
X0196367Y0164463D01*
X0196400Y0162864D02*
X0197750Y0162864D01*
X0197750Y0161266D02*
X0195998Y0161266D01*
X0194994Y0159667D02*
X0197750Y0159667D01*
X0210250Y0158069D02*
X0211424Y0158069D01*
X0210250Y0156470D02*
X0213093Y0156470D01*
X0214762Y0154871D02*
X0210250Y0154871D01*
X0209921Y0153273D02*
X0216430Y0153273D01*
X0219620Y0151674D02*
X0209203Y0151674D01*
X0207605Y0150076D02*
X0219620Y0150076D01*
X0219620Y0148477D02*
X0206006Y0148477D01*
X0204408Y0146879D02*
X0219620Y0146879D01*
X0219620Y0145280D02*
X0202809Y0145280D01*
X0188750Y0145280D02*
X0177152Y0145280D01*
X0178050Y0143682D02*
X0188750Y0143682D01*
X0188750Y0142083D02*
X0178362Y0142083D01*
X0178362Y0140485D02*
X0188991Y0140485D01*
X0189653Y0138886D02*
X0178362Y0138886D01*
X0178362Y0137288D02*
X0191183Y0137288D01*
X0199255Y0130894D02*
X0202089Y0130894D01*
X0201700Y0129295D02*
X0200528Y0129295D01*
X0201190Y0127697D02*
X0201700Y0127697D01*
X0201716Y0126098D02*
X0201250Y0126098D01*
X0202144Y0124500D02*
X0203315Y0124500D01*
X0203476Y0122901D02*
X0209911Y0122901D01*
X0211030Y0121303D02*
X0204808Y0121303D01*
X0206140Y0119704D02*
X0212148Y0119704D01*
X0213267Y0118106D02*
X0207473Y0118106D01*
X0210642Y0116507D02*
X0213480Y0116507D01*
X0213480Y0114909D02*
X0212240Y0114909D01*
X0212936Y0113310D02*
X0213480Y0113310D01*
X0213480Y0111712D02*
X0213250Y0111712D01*
X0213250Y0110113D02*
X0213480Y0110113D01*
X0201914Y0103719D02*
X0200250Y0103719D01*
X0200250Y0102121D02*
X0201700Y0102121D01*
X0201700Y0100522D02*
X0200250Y0100522D01*
X0200250Y0098924D02*
X0201891Y0098924D01*
X0203490Y0097325D02*
X0200250Y0097325D01*
X0200250Y0095727D02*
X0204400Y0095727D01*
X0204400Y0094128D02*
X0200250Y0094128D01*
X0200250Y0092530D02*
X0204400Y0092530D01*
X0203833Y0090931D02*
X0200250Y0090931D01*
X0200250Y0089333D02*
X0202234Y0089333D01*
X0202200Y0087734D02*
X0200250Y0087734D01*
X0200250Y0086136D02*
X0202200Y0086136D01*
X0202985Y0084537D02*
X0200031Y0084537D01*
X0199368Y0082938D02*
X0204583Y0082938D01*
X0211766Y0089333D02*
X0223472Y0089333D01*
X0221874Y0090931D02*
X0210167Y0090931D01*
X0209600Y0092530D02*
X0221400Y0092530D01*
X0221400Y0094128D02*
X0209600Y0094128D01*
X0209600Y0095727D02*
X0221911Y0095727D01*
X0223510Y0097325D02*
X0210510Y0097325D01*
X0230089Y0095727D02*
X0231628Y0095727D01*
X0231200Y0094128D02*
X0230600Y0094128D01*
X0230600Y0092530D02*
X0231200Y0092530D01*
X0238489Y0106916D02*
X0252250Y0106916D01*
X0252250Y0108515D02*
X0237114Y0108515D01*
X0235516Y0110113D02*
X0252250Y0110113D01*
X0252250Y0111712D02*
X0233917Y0111712D01*
X0232319Y0113310D02*
X0252250Y0113310D01*
X0252250Y0114909D02*
X0230720Y0114909D01*
X0229122Y0116507D02*
X0252250Y0116507D01*
X0252250Y0118106D02*
X0227523Y0118106D01*
X0225925Y0119704D02*
X0252250Y0119704D01*
X0252250Y0121303D02*
X0225120Y0121303D01*
X0225120Y0122901D02*
X0252358Y0122901D01*
X0252821Y0124020D02*
X0252821Y0124020D01*
X0253301Y0124500D02*
X0225120Y0124500D01*
X0225120Y0126098D02*
X0254899Y0126098D01*
X0254223Y0127697D02*
X0238741Y0127697D01*
X0240200Y0129295D02*
X0254200Y0129295D01*
X0254200Y0130894D02*
X0240200Y0130894D01*
X0240200Y0132492D02*
X0254200Y0132492D01*
X0254200Y0134091D02*
X0239573Y0134091D01*
X0237974Y0135689D02*
X0254200Y0135689D01*
X0254200Y0137288D02*
X0238332Y0137288D01*
X0239930Y0138886D02*
X0254200Y0138886D01*
X0254200Y0140485D02*
X0240200Y0140485D01*
X0240200Y0142083D02*
X0254200Y0142083D01*
X0254200Y0143682D02*
X0239982Y0143682D01*
X0238383Y0145280D02*
X0254200Y0145280D01*
X0254200Y0146879D02*
X0237640Y0146879D01*
X0239239Y0148477D02*
X0254200Y0148477D01*
X0254200Y0150076D02*
X0240000Y0150076D01*
X0240000Y0151674D02*
X0254200Y0151674D01*
X0254200Y0153273D02*
X0240000Y0153273D01*
X0238509Y0154871D02*
X0254616Y0154871D01*
X0240200Y0159667D02*
X0297452Y0159667D01*
X0296108Y0161266D02*
X0240200Y0161266D01*
X0240200Y0162864D02*
X0267658Y0162864D01*
X0269012Y0161510D02*
X0266200Y0164322D01*
X0266200Y0168298D01*
X0269012Y0171110D01*
X0272988Y0171110D01*
X0275800Y0168298D01*
X0275800Y0164322D01*
X0272988Y0161510D01*
X0269012Y0161510D01*
X0266200Y0164463D02*
X0239201Y0164463D01*
X0237603Y0166061D02*
X0266200Y0166061D01*
X0266200Y0167660D02*
X0238704Y0167660D01*
X0244837Y0169258D02*
X0267160Y0169258D01*
X0268758Y0170857D02*
X0246436Y0170857D01*
X0248034Y0172455D02*
X0286966Y0172455D01*
X0286758Y0170857D02*
X0273242Y0170857D01*
X0274840Y0169258D02*
X0285160Y0169258D01*
X0284200Y0167660D02*
X0275800Y0167660D01*
X0275800Y0166061D02*
X0284200Y0166061D01*
X0284200Y0164463D02*
X0275800Y0164463D01*
X0274342Y0162864D02*
X0285658Y0162864D01*
X0292342Y0162864D02*
X0295622Y0162864D01*
X0294958Y0164463D02*
X0293800Y0164463D01*
X0302548Y0159667D02*
X0343397Y0159667D01*
X0344250Y0161266D02*
X0303892Y0161266D01*
X0310342Y0162864D02*
X0319658Y0162864D01*
X0321012Y0161510D02*
X0324988Y0161510D01*
X0327800Y0164322D01*
X0327800Y0168298D01*
X0324988Y0171110D01*
X0321012Y0171110D01*
X0318200Y0168298D01*
X0318200Y0164322D01*
X0321012Y0161510D01*
X0318200Y0164463D02*
X0311800Y0164463D01*
X0311800Y0166061D02*
X0318200Y0166061D01*
X0318200Y0167660D02*
X0311800Y0167660D01*
X0310840Y0169258D02*
X0319160Y0169258D01*
X0320758Y0170857D02*
X0309242Y0170857D01*
X0304758Y0170857D02*
X0302600Y0170857D01*
X0302600Y0172455D02*
X0331400Y0172455D01*
X0331400Y0172310D02*
X0336000Y0172310D01*
X0336000Y0172310D01*
X0336000Y0176910D01*
X0337905Y0176910D01*
X0340600Y0174215D01*
X0340600Y0172310D01*
X0336000Y0172310D01*
X0336000Y0176910D01*
X0334095Y0176910D01*
X0331400Y0174215D01*
X0331400Y0172310D01*
X0331400Y0170405D01*
X0334095Y0167710D01*
X0336000Y0167710D01*
X0337905Y0167710D01*
X0340600Y0170405D01*
X0340600Y0172310D01*
X0336000Y0172310D01*
X0336000Y0172310D01*
X0336000Y0172310D01*
X0331400Y0172310D01*
X0331400Y0170857D02*
X0325242Y0170857D01*
X0326840Y0169258D02*
X0332546Y0169258D01*
X0336000Y0169258D02*
X0336000Y0169258D01*
X0336000Y0167710D02*
X0336000Y0172310D01*
X0336000Y0172310D01*
X0336000Y0167710D01*
X0339454Y0169258D02*
X0342264Y0169258D01*
X0341200Y0170857D02*
X0340600Y0170857D01*
X0340600Y0172455D02*
X0341200Y0172455D01*
X0341200Y0174054D02*
X0340600Y0174054D01*
X0339163Y0175652D02*
X0342554Y0175652D01*
X0343250Y0177251D02*
X0302600Y0177251D01*
X0302600Y0178849D02*
X0343250Y0178849D01*
X0343250Y0180448D02*
X0329366Y0180448D01*
X0330200Y0182046D02*
X0342375Y0182046D01*
X0336000Y0175652D02*
X0336000Y0175652D01*
X0336000Y0174054D02*
X0336000Y0174054D01*
X0336000Y0172455D02*
X0336000Y0172455D01*
X0336000Y0170857D02*
X0336000Y0170857D01*
X0331400Y0174054D02*
X0302600Y0174054D01*
X0302600Y0175652D02*
X0332837Y0175652D01*
X0320634Y0180448D02*
X0317634Y0180448D01*
X0319514Y0182046D02*
X0319800Y0182046D01*
X0312366Y0180448D02*
X0307132Y0180448D01*
X0305200Y0180448D02*
X0304800Y0180448D01*
X0304800Y0182046D02*
X0305200Y0182046D01*
X0305200Y0183645D02*
X0304800Y0183645D01*
X0309180Y0182046D02*
X0310486Y0182046D01*
X0302868Y0180448D02*
X0302600Y0180448D01*
X0290352Y0188440D02*
X0289648Y0188440D01*
X0287956Y0190039D02*
X0292044Y0190039D01*
X0292662Y0191637D02*
X0261441Y0191637D01*
X0259618Y0190039D02*
X0272044Y0190039D01*
X0270352Y0188440D02*
X0258019Y0188440D01*
X0256421Y0186842D02*
X0269681Y0186842D01*
X0269500Y0185243D02*
X0250258Y0185243D01*
X0251186Y0183645D02*
X0269737Y0183645D01*
X0270486Y0182046D02*
X0251378Y0182046D01*
X0250967Y0180448D02*
X0272366Y0180448D01*
X0277634Y0180448D02*
X0282250Y0180448D01*
X0282250Y0178849D02*
X0249750Y0178849D01*
X0249750Y0177251D02*
X0282462Y0177251D01*
X0283769Y0175652D02*
X0249750Y0175652D01*
X0249456Y0174054D02*
X0285367Y0174054D01*
X0280486Y0182046D02*
X0279514Y0182046D01*
X0279648Y0188440D02*
X0280352Y0188440D01*
X0282044Y0190039D02*
X0277956Y0190039D01*
X0267036Y0196433D02*
X0298039Y0196433D01*
X0296101Y0194834D02*
X0265171Y0194834D01*
X0263306Y0193236D02*
X0294163Y0193236D01*
X0302600Y0169258D02*
X0303160Y0169258D01*
X0326342Y0162864D02*
X0344250Y0162864D01*
X0344250Y0164463D02*
X0327800Y0164463D01*
X0327800Y0166061D02*
X0344250Y0166061D01*
X0343862Y0167660D02*
X0327800Y0167660D01*
X0342069Y0158069D02*
X0239112Y0158069D01*
X0237514Y0156470D02*
X0340870Y0156470D01*
X0232486Y0156470D02*
X0229609Y0156470D01*
X0228011Y0154871D02*
X0231491Y0154871D01*
X0230000Y0153273D02*
X0226412Y0153273D01*
X0225120Y0151674D02*
X0230000Y0151674D01*
X0230000Y0150076D02*
X0225120Y0150076D01*
X0225120Y0148477D02*
X0230761Y0148477D01*
X0232360Y0146879D02*
X0225120Y0146879D01*
X0225120Y0145280D02*
X0231617Y0145280D01*
X0230018Y0143682D02*
X0225120Y0143682D01*
X0225120Y0142083D02*
X0229800Y0142083D01*
X0229800Y0140485D02*
X0225120Y0140485D01*
X0225120Y0138886D02*
X0230070Y0138886D01*
X0231668Y0137288D02*
X0225120Y0137288D01*
X0225120Y0135689D02*
X0232026Y0135689D01*
X0230427Y0134091D02*
X0225120Y0134091D01*
X0225120Y0132492D02*
X0229800Y0132492D01*
X0229800Y0130894D02*
X0225120Y0130894D01*
X0225120Y0129295D02*
X0229800Y0129295D01*
X0231259Y0127697D02*
X0225120Y0127697D01*
X0176400Y0111712D02*
X0172763Y0111712D01*
X0171232Y0110113D02*
X0176400Y0110113D01*
X0176400Y0108515D02*
X0164250Y0108515D01*
X0164250Y0110113D02*
X0164768Y0110113D01*
X0164250Y0106916D02*
X0176400Y0106916D01*
X0176400Y0105318D02*
X0164250Y0105318D01*
X0164250Y0103719D02*
X0176400Y0103719D01*
X0176400Y0102121D02*
X0164250Y0102121D01*
X0164250Y0100522D02*
X0176400Y0100522D01*
X0176400Y0098924D02*
X0164250Y0098924D01*
X0164250Y0097325D02*
X0176400Y0097325D01*
X0176400Y0095727D02*
X0164250Y0095727D01*
X0164250Y0094128D02*
X0176400Y0094128D01*
X0176400Y0092530D02*
X0164250Y0092530D01*
X0164250Y0090931D02*
X0176400Y0090931D01*
X0176400Y0089333D02*
X0164250Y0089333D01*
X0163698Y0087734D02*
X0176400Y0087734D01*
X0176400Y0086136D02*
X0162664Y0086136D01*
X0161066Y0084537D02*
X0176400Y0084537D01*
X0176400Y0082938D02*
X0160250Y0082938D01*
X0160250Y0081340D02*
X0176400Y0081340D01*
X0176400Y0079741D02*
X0160250Y0079741D01*
X0160250Y0078143D02*
X0176400Y0078143D01*
X0176400Y0076544D02*
X0160250Y0076544D01*
X0160250Y0074946D02*
X0176400Y0074946D01*
X0176400Y0073347D02*
X0160250Y0073347D01*
X0160250Y0071749D02*
X0176418Y0071749D01*
X0177483Y0070150D02*
X0160250Y0070150D01*
X0159623Y0068552D02*
X0179081Y0068552D01*
X0185919Y0068552D02*
X0189297Y0068552D01*
X0188635Y0070150D02*
X0187517Y0070150D01*
X0190720Y0066953D02*
X0158482Y0066953D01*
X0155955Y0065355D02*
X0226250Y0065355D01*
X0226250Y0066953D02*
X0197280Y0066953D01*
X0198702Y0068552D02*
X0226250Y0068552D01*
X0226250Y0070150D02*
X0199365Y0070150D01*
X0199400Y0071749D02*
X0226250Y0071749D01*
X0226250Y0073347D02*
X0199001Y0073347D01*
X0198001Y0074946D02*
X0226250Y0074946D01*
X0231750Y0073347D02*
X0232532Y0073347D01*
X0261000Y0060310D02*
X0261000Y0043310D01*
X0265000Y0039310D01*
X0269112Y0042976D02*
X0270888Y0042976D01*
X0273337Y0044574D02*
X0266663Y0044574D01*
X0263800Y0046173D02*
X0283200Y0046173D01*
X0283200Y0047771D02*
X0263800Y0047771D01*
X0263800Y0049370D02*
X0283200Y0049370D01*
X0283200Y0050968D02*
X0263800Y0050968D01*
X0263800Y0052567D02*
X0283200Y0052567D01*
X0283200Y0054165D02*
X0263800Y0054165D01*
X0263800Y0055764D02*
X0283200Y0055764D01*
X0282159Y0057362D02*
X0264841Y0057362D01*
X0265800Y0058961D02*
X0281200Y0058961D01*
X0281200Y0060559D02*
X0265800Y0060559D01*
X0265800Y0062158D02*
X0281200Y0062158D01*
X0282658Y0063756D02*
X0264342Y0063756D01*
X0286000Y0060310D02*
X0286000Y0040310D01*
X0285000Y0039310D01*
X0289112Y0042976D02*
X0290888Y0042976D01*
X0288800Y0044574D02*
X0293337Y0044574D01*
X0296663Y0044574D02*
X0303337Y0044574D01*
X0300888Y0042976D02*
X0299112Y0042976D01*
X0305000Y0039310D02*
X0311000Y0045310D01*
X0311000Y0060310D01*
X0306200Y0060559D02*
X0290800Y0060559D01*
X0290800Y0058961D02*
X0306200Y0058961D01*
X0307159Y0057362D02*
X0289841Y0057362D01*
X0288800Y0055764D02*
X0308200Y0055764D01*
X0308200Y0054165D02*
X0288800Y0054165D01*
X0288800Y0052567D02*
X0308200Y0052567D01*
X0308200Y0050968D02*
X0288800Y0050968D01*
X0288800Y0049370D02*
X0308200Y0049370D01*
X0308200Y0047771D02*
X0288800Y0047771D01*
X0288800Y0046173D02*
X0307903Y0046173D01*
X0309823Y0036582D02*
X0310177Y0036582D01*
X0311549Y0034983D02*
X0308451Y0034983D01*
X0301549Y0034983D02*
X0298451Y0034983D01*
X0299823Y0036582D02*
X0300177Y0036582D01*
X0291549Y0034983D02*
X0288451Y0034983D01*
X0289823Y0036582D02*
X0290177Y0036582D01*
X0281549Y0034983D02*
X0278451Y0034983D01*
X0279823Y0036582D02*
X0280177Y0036582D01*
X0271549Y0034983D02*
X0268451Y0034983D01*
X0269823Y0036582D02*
X0270177Y0036582D01*
X0261549Y0034983D02*
X0258451Y0034983D01*
X0259823Y0036582D02*
X0260177Y0036582D01*
X0251549Y0034983D02*
X0248451Y0034983D01*
X0249823Y0036582D02*
X0250177Y0036582D01*
X0241549Y0034983D02*
X0238451Y0034983D01*
X0239823Y0036582D02*
X0240177Y0036582D01*
X0231549Y0034983D02*
X0228062Y0034983D01*
X0229558Y0036582D02*
X0230177Y0036582D01*
X0229903Y0041377D02*
X0229895Y0041377D01*
X0230888Y0042976D02*
X0228830Y0042976D01*
X0209877Y0039779D02*
X0110792Y0039779D01*
X0109979Y0038180D02*
X0208636Y0038180D01*
X0208222Y0036582D02*
X0107930Y0036582D01*
X0103000Y0036582D02*
X0102600Y0036582D01*
X0102600Y0038180D02*
X0103000Y0038180D01*
X0103000Y0039779D02*
X0102600Y0039779D01*
X0097670Y0036582D02*
X0082330Y0036582D01*
X0084379Y0038180D02*
X0095621Y0038180D01*
X0094808Y0039779D02*
X0085192Y0039779D01*
X0085084Y0042976D02*
X0094916Y0042976D01*
X0095893Y0044574D02*
X0084107Y0044574D01*
X0077400Y0039779D02*
X0077000Y0039779D01*
X0077000Y0038180D02*
X0077400Y0038180D01*
X0077400Y0036582D02*
X0077000Y0036582D01*
X0072070Y0036582D02*
X0051750Y0036582D01*
X0051750Y0034983D02*
X0208411Y0034983D01*
X0209334Y0033385D02*
X0051750Y0033385D01*
X0051345Y0031786D02*
X0371869Y0031786D01*
X0374800Y0031786D02*
X0375200Y0031786D01*
X0375200Y0033385D02*
X0374800Y0033385D01*
X0374800Y0034983D02*
X0375200Y0034983D01*
X0379673Y0033385D02*
X0380327Y0033385D01*
X0381869Y0031786D02*
X0378131Y0031786D01*
X0384800Y0031786D02*
X0385200Y0031786D01*
X0385200Y0033385D02*
X0384800Y0033385D01*
X0384800Y0034983D02*
X0385200Y0034983D01*
X0389673Y0033385D02*
X0392600Y0033385D01*
X0392600Y0034983D02*
X0390352Y0034983D01*
X0390500Y0036582D02*
X0392600Y0036582D01*
X0392030Y0038180D02*
X0390175Y0038180D01*
X0390431Y0039779D02*
X0389278Y0039779D01*
X0388833Y0041377D02*
X0388128Y0041377D01*
X0388131Y0031786D02*
X0392600Y0031786D01*
X0392600Y0030188D02*
X0049767Y0030188D01*
X0048168Y0028589D02*
X0072915Y0028589D01*
X0070227Y0026991D02*
X0046570Y0026991D01*
X0046482Y0025392D02*
X0044971Y0025392D01*
X0044884Y0023794D02*
X0043111Y0023794D01*
X0052153Y0038180D02*
X0056129Y0038180D01*
X0054531Y0039779D02*
X0053526Y0039779D01*
X0053636Y0044574D02*
X0054264Y0044574D01*
X0074034Y0054165D02*
X0080200Y0054165D01*
X0080200Y0052567D02*
X0075632Y0052567D01*
X0109707Y0044574D02*
X0203230Y0044574D01*
X0202400Y0046173D02*
X0121752Y0046173D01*
X0123350Y0047771D02*
X0202400Y0047771D01*
X0202554Y0049370D02*
X0196848Y0049370D01*
X0198447Y0050968D02*
X0204153Y0050968D01*
X0191152Y0049370D02*
X0156848Y0049370D01*
X0155988Y0048510D02*
X0158800Y0051322D01*
X0158800Y0055298D01*
X0155988Y0058110D01*
X0152012Y0058110D01*
X0149200Y0055298D01*
X0149200Y0051322D01*
X0152012Y0048510D01*
X0155988Y0048510D01*
X0158447Y0050968D02*
X0189553Y0050968D01*
X0189200Y0052567D02*
X0158800Y0052567D01*
X0158800Y0054165D02*
X0189200Y0054165D01*
X0189666Y0055764D02*
X0158334Y0055764D01*
X0156736Y0057362D02*
X0191264Y0057362D01*
X0204829Y0042976D02*
X0110684Y0042976D01*
X0127848Y0049370D02*
X0151152Y0049370D01*
X0149553Y0050968D02*
X0129447Y0050968D01*
X0141217Y0052567D02*
X0149200Y0052567D01*
X0149200Y0054165D02*
X0142815Y0054165D01*
X0144414Y0055764D02*
X0149666Y0055764D01*
X0151264Y0057362D02*
X0146012Y0057362D01*
X0107085Y0028589D02*
X0392600Y0028589D01*
X0391381Y0026991D02*
X0109773Y0026991D01*
X0098515Y0028589D02*
X0081485Y0028589D01*
X0084173Y0026991D02*
X0095827Y0026991D01*
X0157218Y0025392D02*
X0389782Y0025392D01*
X0339500Y0034983D02*
X0338451Y0034983D01*
X0331549Y0034983D02*
X0328451Y0034983D01*
X0329823Y0036582D02*
X0330177Y0036582D01*
X0321549Y0034983D02*
X0318451Y0034983D01*
X0319823Y0036582D02*
X0320177Y0036582D01*
X0283200Y0044574D02*
X0276663Y0044574D01*
X0279112Y0042976D02*
X0280888Y0042976D01*
X0258200Y0044574D02*
X0256663Y0044574D01*
X0290800Y0062158D02*
X0306200Y0062158D01*
X0307658Y0063756D02*
X0289342Y0063756D01*
X0184684Y0023794D02*
X0158816Y0023794D01*
X0160100Y0022195D02*
X0183085Y0022195D01*
X0181226Y0020597D02*
X0178457Y0020597D01*
X0179803Y0018998D02*
X0179888Y0018998D01*
X0175200Y0018998D02*
X0174800Y0018998D01*
X0174800Y0017400D02*
X0175200Y0017400D01*
X0174800Y0016510D02*
X0174800Y0016110D01*
X0169500Y0016110D01*
X0165200Y0016110D01*
X0165200Y0016510D01*
X0174800Y0016510D01*
X0174800Y0016110D02*
X0175200Y0016110D01*
X0175200Y0010810D01*
X0175433Y0010810D01*
X0176288Y0010945D01*
X0177111Y0011213D01*
X0177883Y0011606D01*
X0178583Y0012115D01*
X0179195Y0012727D01*
X0179704Y0013427D01*
X0179800Y0013616D01*
X0179800Y0012410D01*
X0177300Y0009910D01*
X0162800Y0009910D01*
X0160100Y0012610D01*
X0160100Y0013728D01*
X0160119Y0013774D01*
X0160296Y0013427D01*
X0160805Y0012727D01*
X0161417Y0012115D01*
X0162117Y0011606D01*
X0162889Y0011213D01*
X0163712Y0010945D01*
X0164567Y0010810D01*
X0164800Y0010810D01*
X0164800Y0016110D01*
X0165200Y0016110D01*
X0165200Y0010810D01*
X0165433Y0010810D01*
X0166288Y0010945D01*
X0167111Y0011213D01*
X0167883Y0011606D01*
X0168583Y0012115D01*
X0169195Y0012727D01*
X0169704Y0013427D01*
X0170000Y0014008D01*
X0170296Y0013427D01*
X0170805Y0012727D01*
X0171417Y0012115D01*
X0172117Y0011606D01*
X0172889Y0011213D01*
X0173712Y0010945D01*
X0174567Y0010810D01*
X0174800Y0010810D01*
X0174800Y0016110D01*
X0174800Y0015801D02*
X0175200Y0015801D01*
X0175200Y0014202D02*
X0174800Y0014202D01*
X0174800Y0012604D02*
X0175200Y0012604D01*
X0175200Y0011005D02*
X0174800Y0011005D01*
X0173527Y0011005D02*
X0166473Y0011005D01*
X0165200Y0011005D02*
X0164800Y0011005D01*
X0163527Y0011005D02*
X0161704Y0011005D01*
X0160928Y0012604D02*
X0160106Y0012604D01*
X0164800Y0012604D02*
X0165200Y0012604D01*
X0165200Y0014202D02*
X0164800Y0014202D01*
X0164800Y0015801D02*
X0165200Y0015801D01*
X0165200Y0017400D02*
X0164800Y0017400D01*
X0164800Y0018998D02*
X0165200Y0018998D01*
X0165200Y0020597D02*
X0164800Y0020597D01*
X0161543Y0020597D02*
X0160100Y0020597D01*
X0160100Y0018998D02*
X0160197Y0018998D01*
X0168457Y0020597D02*
X0171543Y0020597D01*
X0170197Y0018998D02*
X0169803Y0018998D01*
X0174800Y0020597D02*
X0175200Y0020597D01*
X0179072Y0012604D02*
X0179800Y0012604D01*
X0178396Y0011005D02*
X0176473Y0011005D01*
X0170928Y0012604D02*
X0169072Y0012604D01*
X0029026Y0068552D02*
X0022774Y0068552D01*
X0022346Y0070150D02*
X0029026Y0070150D01*
X0029026Y0071749D02*
X0023600Y0071749D01*
X0023600Y0073347D02*
X0029026Y0073347D01*
X0029026Y0074946D02*
X0023600Y0074946D01*
X0022271Y0076544D02*
X0029026Y0076544D01*
X0019000Y0076544D02*
X0019000Y0076544D01*
X0019000Y0074946D02*
X0019000Y0074946D01*
X0019000Y0073347D02*
X0019000Y0073347D01*
X0024372Y0066953D02*
X0027626Y0066953D01*
X0018638Y0134091D02*
X0007741Y0134091D01*
X0007736Y0135689D02*
X0018032Y0135689D01*
X0017900Y0137288D02*
X0007730Y0137288D01*
X0007725Y0138886D02*
X0018198Y0138886D01*
X0018990Y0140485D02*
X0007719Y0140485D01*
X0007714Y0142083D02*
X0020615Y0142083D01*
X0057200Y0169258D02*
X0064750Y0169258D01*
X0064750Y0170857D02*
X0057200Y0170857D01*
X0057200Y0172455D02*
X0064750Y0172455D01*
X0064750Y0174054D02*
X0056610Y0174054D01*
X0055012Y0175652D02*
X0064791Y0175652D01*
X0065453Y0177251D02*
X0055295Y0177251D01*
X0056893Y0178849D02*
X0066700Y0178849D01*
X0068299Y0180448D02*
X0057200Y0180448D01*
X0057200Y0182046D02*
X0069897Y0182046D01*
X0071496Y0183645D02*
X0057019Y0183645D01*
X0055421Y0185243D02*
X0073094Y0185243D01*
X0145600Y0185243D02*
X0149356Y0185243D01*
X0149004Y0185129D02*
X0149782Y0185382D01*
X0150591Y0185510D01*
X0150700Y0185510D01*
X0150700Y0180610D01*
X0151300Y0180610D01*
X0151300Y0185510D01*
X0151409Y0185510D01*
X0152218Y0185382D01*
X0152996Y0185129D01*
X0153725Y0184757D01*
X0154388Y0184276D01*
X0154966Y0183698D01*
X0155447Y0183035D01*
X0155819Y0182306D01*
X0156072Y0181528D01*
X0156200Y0180719D01*
X0156200Y0180610D01*
X0151300Y0180610D01*
X0151300Y0180010D01*
X0156200Y0180010D01*
X0156200Y0179901D01*
X0156072Y0179092D01*
X0155819Y0178314D01*
X0155447Y0177585D01*
X0154966Y0176922D01*
X0154388Y0176344D01*
X0153725Y0175862D01*
X0152996Y0175491D01*
X0152218Y0175238D01*
X0151409Y0175110D01*
X0151300Y0175110D01*
X0151300Y0180010D01*
X0150700Y0180010D01*
X0145800Y0180010D01*
X0145800Y0179901D01*
X0145928Y0179092D01*
X0146181Y0178314D01*
X0146553Y0177585D01*
X0147034Y0176922D01*
X0147612Y0176344D01*
X0148275Y0175862D01*
X0149004Y0175491D01*
X0149782Y0175238D01*
X0150591Y0175110D01*
X0150700Y0175110D01*
X0150700Y0180010D01*
X0150700Y0180610D01*
X0145800Y0180610D01*
X0145800Y0180719D01*
X0145928Y0181528D01*
X0146181Y0182306D01*
X0146553Y0183035D01*
X0147034Y0183698D01*
X0147612Y0184276D01*
X0148275Y0184757D01*
X0149004Y0185129D01*
X0150700Y0185243D02*
X0151300Y0185243D01*
X0152644Y0185243D02*
X0168875Y0185243D01*
X0167869Y0186842D02*
X0145600Y0186842D01*
X0145600Y0188440D02*
X0167622Y0188440D01*
X0167977Y0190039D02*
X0167129Y0190039D01*
X0164871Y0190039D02*
X0145600Y0190039D01*
X0145600Y0191637D02*
X0162481Y0191637D01*
X0161706Y0193236D02*
X0145600Y0193236D01*
X0146201Y0194834D02*
X0161622Y0194834D01*
X0162141Y0196433D02*
X0147800Y0196433D01*
X0149398Y0198031D02*
X0163544Y0198031D01*
X0175125Y0185243D02*
X0186987Y0185243D01*
X0185635Y0183645D02*
X0155005Y0183645D01*
X0155903Y0182046D02*
X0184993Y0182046D01*
X0184717Y0180448D02*
X0151300Y0180448D01*
X0150700Y0180448D02*
X0145600Y0180448D01*
X0145600Y0182046D02*
X0146097Y0182046D01*
X0145600Y0183645D02*
X0146995Y0183645D01*
X0150700Y0183645D02*
X0151300Y0183645D01*
X0151300Y0182046D02*
X0150700Y0182046D01*
X0150700Y0178849D02*
X0151300Y0178849D01*
X0151300Y0177251D02*
X0150700Y0177251D01*
X0150700Y0175652D02*
X0151300Y0175652D01*
X0153313Y0175652D02*
X0186829Y0175652D01*
X0185545Y0177251D02*
X0155205Y0177251D01*
X0155993Y0178849D02*
X0184850Y0178849D01*
X0188718Y0174054D02*
X0145600Y0174054D01*
X0145600Y0175652D02*
X0148687Y0175652D01*
X0146795Y0177251D02*
X0145600Y0177251D01*
X0145600Y0178849D02*
X0146007Y0178849D01*
X0145600Y0172455D02*
X0190607Y0172455D01*
X0192496Y0170857D02*
X0145600Y0170857D01*
X0150108Y0146879D02*
X0150553Y0146879D01*
X0155447Y0146879D02*
X0160553Y0146879D01*
X0158542Y0145280D02*
X0157458Y0145280D01*
D28*
X0222370Y0153120D02*
X0222370Y0119370D01*
X0236000Y0105740D01*
X0236000Y0093310D01*
X0255000Y0099310D02*
X0255000Y0121896D01*
X0255293Y0122603D02*
X0259000Y0126310D01*
X0271000Y0126310D01*
X0289000Y0126310D01*
X0307000Y0126310D01*
X0323000Y0126310D01*
X0333586Y0126310D01*
X0334293Y0126603D02*
X0347000Y0139310D01*
X0347000Y0170310D01*
X0346293Y0171017D01*
X0347000Y0170896D02*
X0346998Y0170956D01*
X0346993Y0171017D01*
X0346984Y0171076D01*
X0346971Y0171135D01*
X0346955Y0171194D01*
X0346935Y0171251D01*
X0346912Y0171306D01*
X0346885Y0171361D01*
X0346856Y0171413D01*
X0346823Y0171464D01*
X0346787Y0171513D01*
X0346749Y0171559D01*
X0346707Y0171603D01*
X0346000Y0172310D01*
X0346000Y0171724D02*
X0346000Y0182310D01*
X0343293Y0185017D01*
X0342586Y0185310D02*
X0325000Y0185310D01*
X0333320Y0192340D02*
X0303590Y0192350D01*
X0300000Y0188310D01*
X0295293Y0190603D02*
X0295251Y0190559D01*
X0295213Y0190513D01*
X0295177Y0190464D01*
X0295144Y0190413D01*
X0295115Y0190361D01*
X0295088Y0190306D01*
X0295065Y0190251D01*
X0295045Y0190194D01*
X0295029Y0190135D01*
X0295016Y0190076D01*
X0295007Y0190017D01*
X0295002Y0189956D01*
X0295000Y0189896D01*
X0295000Y0185310D01*
X0295293Y0190603D02*
X0301000Y0195310D01*
X0328910Y0195310D01*
X0335020Y0201420D01*
X0335020Y0206290D01*
X0335000Y0206310D01*
X0345000Y0206310D02*
X0345000Y0205310D01*
X0333320Y0192340D01*
X0342586Y0185310D02*
X0342646Y0185308D01*
X0342707Y0185303D01*
X0342766Y0185294D01*
X0342825Y0185281D01*
X0342884Y0185265D01*
X0342941Y0185245D01*
X0342996Y0185222D01*
X0343051Y0185195D01*
X0343103Y0185166D01*
X0343154Y0185133D01*
X0343203Y0185097D01*
X0343249Y0185059D01*
X0343293Y0185017D01*
X0346000Y0171724D02*
X0346002Y0171664D01*
X0346007Y0171603D01*
X0346016Y0171544D01*
X0346029Y0171485D01*
X0346045Y0171426D01*
X0346065Y0171369D01*
X0346088Y0171314D01*
X0346115Y0171259D01*
X0346144Y0171207D01*
X0346177Y0171156D01*
X0346213Y0171107D01*
X0346251Y0171061D01*
X0346293Y0171017D01*
X0347000Y0170896D02*
X0347000Y0170310D01*
X0300000Y0163310D02*
X0285000Y0178310D01*
X0285000Y0185310D01*
X0266000Y0199310D02*
X0320000Y0199310D01*
X0324707Y0204017D01*
X0324707Y0206017D01*
X0325000Y0206310D01*
X0266000Y0199310D02*
X0265000Y0198310D01*
X0258000Y0192310D01*
X0254000Y0188310D01*
X0172000Y0188310D01*
X0166000Y0194310D02*
X0250000Y0194310D01*
X0247000Y0182310D02*
X0247000Y0175310D01*
X0243000Y0171310D01*
X0235000Y0171310D01*
X0235000Y0161310D02*
X0230560Y0161310D01*
X0222370Y0153120D01*
X0255293Y0122603D02*
X0255251Y0122559D01*
X0255213Y0122513D01*
X0255177Y0122464D01*
X0255144Y0122413D01*
X0255115Y0122361D01*
X0255088Y0122306D01*
X0255065Y0122251D01*
X0255045Y0122194D01*
X0255029Y0122135D01*
X0255016Y0122076D01*
X0255007Y0122017D01*
X0255002Y0121956D01*
X0255000Y0121896D01*
X0229000Y0077310D02*
X0229000Y0052810D01*
X0212600Y0036310D01*
X0135000Y0020310D02*
X0135000Y0016310D01*
X0135000Y0020310D02*
X0131900Y0023410D01*
X0102800Y0023410D01*
X0077200Y0023410D01*
X0049000Y0033310D02*
X0049000Y0042310D01*
X0049000Y0046310D01*
X0055000Y0052310D01*
X0072000Y0052310D01*
X0076000Y0048310D01*
X0120000Y0048310D01*
X0125000Y0053310D01*
X0074000Y0092310D02*
X0069000Y0087310D01*
X0074000Y0092310D02*
X0074000Y0101310D01*
X0049000Y0033310D02*
X0042000Y0026310D01*
X0021000Y0026310D01*
X0025000Y0188310D02*
X0025000Y0197310D01*
X0333586Y0126310D02*
X0333646Y0126312D01*
X0333707Y0126317D01*
X0333766Y0126326D01*
X0333825Y0126339D01*
X0333884Y0126355D01*
X0333941Y0126375D01*
X0333996Y0126398D01*
X0334051Y0126425D01*
X0334103Y0126454D01*
X0334154Y0126487D01*
X0334203Y0126523D01*
X0334249Y0126561D01*
X0334293Y0126603D01*
D29*
X0300000Y0163310D03*
X0247000Y0182310D03*
X0250000Y0194310D03*
X0320000Y0199310D03*
X0172000Y0188310D03*
X0166000Y0194310D03*
X0117000Y0053310D03*
X0212600Y0036310D03*
D30*
X0207000Y0087310D02*
X0207000Y0101310D01*
X0216080Y0108620D01*
X0216080Y0118620D01*
X0210000Y0127310D01*
X0207000Y0128310D01*
X0153000Y0138310D02*
X0153000Y0140310D01*
X0143000Y0150310D01*
X0143000Y0195310D01*
X0149000Y0201310D01*
X0149000Y0206310D01*
X0139000Y0206310D02*
X0139000Y0142310D01*
X0143000Y0138310D01*
X0074000Y0128310D02*
X0069000Y0120310D01*
X0066000Y0115310D01*
X0066000Y0111310D01*
X0074000Y0101310D01*
X0300000Y0163310D02*
X0300000Y0188310D01*
D31*
X0204000Y0169310D02*
X0204000Y0155310D01*
X0195000Y0146310D01*
X0195000Y0142310D01*
X0195000Y0146310D02*
X0195000Y0147310D01*
X0195000Y0126310D02*
X0195000Y0123310D01*
X0205000Y0111310D01*
X0198000Y0111310D01*
X0196000Y0113310D01*
X0198000Y0113310D01*
X0193000Y0118310D01*
X0168000Y0118310D01*
X0158000Y0118310D02*
X0158000Y0090310D01*
X0154000Y0086310D01*
X0154000Y0071310D01*
X0126000Y0071310D02*
X0126000Y0086310D01*
X0126000Y0066310D01*
X0121000Y0061310D01*
X0037000Y0061310D01*
X0035276Y0065586D02*
X0032000Y0062310D01*
X0035276Y0065586D02*
X0035276Y0097302D01*
X0017000Y0097530D02*
X0016772Y0097302D01*
X0017000Y0097530D02*
X0017000Y0117310D01*
X0022913Y0123223D01*
X0024000Y0123223D01*
X0051000Y0141310D02*
X0052000Y0141310D01*
X0059000Y0141310D01*
X0071000Y0153310D01*
X0071000Y0150310D01*
X0081000Y0150310D01*
X0081500Y0149810D01*
X0083000Y0147310D01*
X0083000Y0126310D01*
X0075000Y0111310D01*
X0079000Y0111310D01*
X0096000Y0097310D01*
X0103000Y0097310D01*
X0108000Y0108310D01*
X0108000Y0118310D01*
X0075000Y0111310D02*
X0074000Y0111310D01*
X0103000Y0097310D02*
X0103000Y0084310D01*
X0086000Y0071310D01*
X0126000Y0086310D02*
X0154000Y0086310D01*
X0194000Y0086310D02*
X0194000Y0108310D01*
X0197000Y0111310D01*
X0198000Y0111310D01*
X0205000Y0111310D02*
X0207000Y0111310D01*
X0113000Y0138310D02*
X0113000Y0144310D01*
X0105000Y0152310D01*
X0071000Y0153310D02*
X0071000Y0174310D01*
X0077000Y0180310D01*
X0087000Y0180310D01*
X0191000Y0180310D02*
X0204000Y0169310D01*
D32*
X0195000Y0142310D03*
X0195000Y0126310D03*
X0105000Y0152310D03*
D33*
X0019000Y0063310D02*
X0019000Y0062310D01*
X0021000Y0058310D01*
X0021000Y0046310D01*
X0021000Y0058310D02*
X0031000Y0061310D01*
X0032000Y0062310D01*
X0031000Y0061310D02*
X0037000Y0061310D01*
M02*
